<svg xmlns="http://www.w3.org/2000/svg" viewBox="0 0 35 35"><defs><style>.cls-1{fill:none;}</style></defs><title>battersea</title><g id="Layer_2" data-name="Layer 2"><g id="design"><path d="M30.83,6.79H26.37L26,21.53H9L8.65,6.79H4.19L3.47,35l.73,0L4.9,7.52h3L8.62,35l.73,0,0-1.11H25.69l0,1.11.73,0,.7-27.48h3L30.8,35l.73,0ZM9.12,25.86H25.89L25.8,29.4H9.21ZM26,22.26l-.07,2.87H9.1L9,22.26ZM9.3,33.14l-.07-3H25.78l-.08,3Z"/><rect x="6.06" y="9.79" width="0.73" height="22.01"/><rect x="28.24" y="9.79" width="0.73" height="22.01"/><path d="M7.31,5.6a1.34,1.34,0,0,0,.45-.08,2.06,2.06,0,0,0,3.06-.64,1.39,1.39,0,0,0,.62-2.69,2.07,2.07,0,0,0-4-.38A1.5,1.5,0,0,0,6.19,3.29s0,.06,0,.09A1.39,1.39,0,0,0,7.31,5.6ZM6.83,3.75,7,3.61l0-.18a.78.78,0,0,1,0-.14.77.77,0,0,1,.79-.76H8l.06-.3a1.34,1.34,0,0,1,2.65.19v.39l.32,0a.66.66,0,0,1,.58.65.65.65,0,0,1-.89.62L10.39,4l-.12.35a1.33,1.33,0,0,1-2.19.5l-.2-.19-.24.14a.67.67,0,0,1-1-.57A.66.66,0,0,1,6.83,3.75Z"/><rect class="cls-1" width="35" height="35"/></g></g></svg>