<svg xmlns="http://www.w3.org/2000/svg" viewBox="0 0 35 35"><defs><style>.cls-1{fill:none;}</style></defs><title>elizabeth_tower</title><g id="Layer_2" data-name="Layer 2"><g id="design"><path d="M17.5,21.64a4.22,4.22,0,1,0,4.22,4.22A4.22,4.22,0,0,0,17.5,21.64Zm0,7.72a3.5,3.5,0,1,1,3.5-3.5A3.51,3.51,0,0,1,17.5,29.36Z"/><rect x="13.08" y="33.08" width="3.12" height="0.71" transform="translate(-18.84 47.98) rotate(-89.83)"/><rect x="15.95" y="33.08" width="3.12" height="0.71" transform="translate(-15.98 50.85) rotate(-89.83)"/><rect x="18.83" y="33.08" width="3.12" height="0.71" transform="translate(-13.11 53.73) rotate(-89.83)"/><path d="M24.27,20.91l-3-8.52h-.56v-2l.21.48.66-.28-4.1-9.57-4,9.55.66.28.16-.38V12.4h-.55l-3,8.51.67.24.51-1.44V35h.71V19.84h9.76V35h.71V19.68l.51,1.46Zm-6.76-18,3,7h-6ZM15,10.61h5V12.4H15Zm-2.89,8.51,2.13-6H20.8l2.09,6Z"/><rect class="cls-1" width="35" height="35"/></g></g></svg>