<?xml version="1.0" standalone="no"?>
<!DOCTYPE svg PUBLIC "-//W3C//DTD SVG 20010904//EN"
 "http://www.w3.org/TR/2001/REC-SVG-20010904/DTD/svg10.dtd">
<svg version="1.0" xmlns="http://www.w3.org/2000/svg"
 width="16.000000pt" height="16.000000pt" viewBox="0 0 16.000000 16.000000"
 preserveAspectRatio="xMidYMid meet">
<metadata>
Created by potrace 1.11, written by Peter Selinger 2001-2013
</metadata>
<g transform="translate(0.000000,16.000000) scale(0.006130,-0.006130)"
fill="#000000" stroke="none">
<path d="M1165 2309 c-77 -45 -160 -93 -185 -107 -25 -14 -76 -44 -115 -67
-38 -22 -77 -44 -85 -48 -8 -4 -29 -16 -46 -26 -17 -10 -107 -63 -200 -116
-93 -54 -196 -114 -229 -133 -33 -19 -80 -46 -106 -61 -25 -14 -79 -45 -120
-69 l-74 -43 0 -324 c0 -178 2 -326 5 -328 4 -5 379 -222 487 -283 64 -37 336
-193 353 -203 152 -93 456 -261 466 -257 7 3 73 40 146 82 73 42 153 88 178
102 43 24 180 104 507 293 84 49 157 89 163 89 5 0 10 5 10 10 0 6 4 10 8 10
5 0 69 35 143 78 l135 77 0 329 -1 329 -105 60 c-58 33 -123 70 -145 82 -22
13 -107 62 -190 110 -82 48 -170 99 -195 113 -25 14 -61 35 -80 47 -19 12 -42
25 -50 28 -8 4 -31 17 -50 28 -36 22 -272 159 -325 189 -16 10 -58 34 -92 54
-34 20 -63 36 -65 36 -2 0 -66 -37 -143 -81z"/>
</g>
</svg>
