<svg xmlns="http://www.w3.org/2000/svg" xmlns:xlink="http://www.w3.org/1999/xlink" viewBox="0 0 375.8 530.22"><defs><style>.cls-1{fill:url(#linear-gradient);}.cls-2{fill:url(#linear-gradient-2);}.cls-3{fill:url(#linear-gradient-3);}.cls-4{fill:url(#linear-gradient-4);}.cls-5{fill:url(#linear-gradient-5);}.cls-6{fill:url(#linear-gradient-6);}.cls-7{fill:url(#linear-gradient-7);}.cls-8{fill:url(#linear-gradient-8);}.cls-9{fill:url(#linear-gradient-9);}.cls-10{fill:url(#linear-gradient-10);}.cls-11{fill:url(#linear-gradient-11);}.cls-12{fill:url(#linear-gradient-12);}.cls-13{fill:url(#linear-gradient-13);}.cls-14{fill:url(#linear-gradient-14);}.cls-15{fill:url(#linear-gradient-15);}.cls-16{fill:url(#linear-gradient-16);}.cls-17{fill:url(#linear-gradient-17);}.cls-18{fill:url(#linear-gradient-18);}.cls-19{fill:url(#linear-gradient-19);}.cls-20{fill:url(#linear-gradient-20);}.cls-21{fill:url(#linear-gradient-21);}.cls-22{fill:url(#linear-gradient-22);}.cls-23{fill:url(#linear-gradient-23);}.cls-24{fill:url(#linear-gradient-24);}.cls-25{fill:url(#linear-gradient-25);}.cls-26{fill:url(#linear-gradient-26);}.cls-27{fill:url(#linear-gradient-27);}.cls-28{fill:url(#linear-gradient-28);}.cls-29{fill:url(#linear-gradient-29);}.cls-30{fill:url(#linear-gradient-30);}.cls-31{fill:url(#linear-gradient-31);}.cls-32{fill:url(#linear-gradient-32);}.cls-33{fill:url(#linear-gradient-33);}.cls-34{fill:url(#linear-gradient-34);}.cls-35{fill:url(#linear-gradient-35);}.cls-36{fill:url(#linear-gradient-36);}.cls-37{fill:url(#linear-gradient-37);}.cls-38{fill:url(#linear-gradient-38);}.cls-39{fill:url(#linear-gradient-39);}.cls-40{fill:url(#linear-gradient-40);}.cls-41{fill:url(#linear-gradient-41);}.cls-42{fill:url(#linear-gradient-42);}.cls-43{fill:url(#linear-gradient-43);}.cls-44{fill:url(#linear-gradient-44);}.cls-45{fill:url(#linear-gradient-45);}.cls-46{fill:url(#linear-gradient-46);}.cls-47{fill:url(#linear-gradient-47);}.cls-48{fill:url(#linear-gradient-48);}.cls-49{fill:url(#linear-gradient-49);}.cls-50{fill:url(#linear-gradient-50);}.cls-51{fill:url(#linear-gradient-51);}.cls-52{fill:url(#linear-gradient-52);}.cls-53{fill:url(#linear-gradient-53);}.cls-54{fill:url(#linear-gradient-54);}.cls-55{fill:url(#linear-gradient-55);}.cls-56{fill:url(#linear-gradient-56);}.cls-57{fill:url(#linear-gradient-57);}.cls-58{fill:url(#linear-gradient-58);}.cls-59{fill:url(#linear-gradient-59);}.cls-60{fill:url(#linear-gradient-60);}.cls-61{fill:url(#linear-gradient-61);}.cls-62{fill:url(#linear-gradient-62);}.cls-63{fill:#6be3ee;}.cls-64{fill:url(#linear-gradient-63);}.cls-65{fill:url(#linear-gradient-64);}.cls-66{fill:url(#linear-gradient-65);}.cls-67{fill:url(#linear-gradient-66);}.cls-68{fill:url(#linear-gradient-67);}.cls-69{fill:url(#linear-gradient-68);}.cls-70{fill:url(#linear-gradient-69);}.cls-71{fill:#09d1e3;}.cls-72{fill:url(#linear-gradient-70);}.cls-73{fill:url(#linear-gradient-71);}.cls-74{fill:url(#linear-gradient-72);}.cls-75{fill:url(#linear-gradient-73);}.cls-76{fill:url(#linear-gradient-74);}.cls-77{fill:url(#linear-gradient-75);}.cls-78{fill:url(#linear-gradient-76);}</style><linearGradient id="linear-gradient" x1="29.79" y1="349.39" x2="30.12" y2="349.58" gradientUnits="userSpaceOnUse"><stop offset="0" stop-color="#2d96d2"/><stop offset="1" stop-color="#2057a1"/></linearGradient><linearGradient id="linear-gradient-2" x1="29.49" y1="344.06" x2="29.87" y2="344.28" xlink:href="#linear-gradient"/><linearGradient id="linear-gradient-3" x1="29.36" y1="338.59" x2="29.66" y2="338.77" xlink:href="#linear-gradient"/><linearGradient id="linear-gradient-4" x1="30.27" y1="354.48" x2="30.39" y2="354.55" xlink:href="#linear-gradient"/><linearGradient id="linear-gradient-5" x1="31.25" y1="363.85" x2="31.52" y2="364.01" xlink:href="#linear-gradient"/><linearGradient id="linear-gradient-6" x1="30.73" y1="359.21" x2="30.87" y2="359.29" xlink:href="#linear-gradient"/><linearGradient id="linear-gradient-7" x1="31.94" y1="368.41" x2="32.2" y2="368.56" xlink:href="#linear-gradient"/><linearGradient id="linear-gradient-8" x1="172.57" y1="86.74" x2="172.6" y2="86.76" xlink:href="#linear-gradient"/><linearGradient id="linear-gradient-9" x1="172.73" y1="86.65" x2="172.75" y2="86.66" xlink:href="#linear-gradient"/><linearGradient id="linear-gradient-10" x1="174.31" y1="85.71" x2="174.35" y2="85.74" xlink:href="#linear-gradient"/><linearGradient id="linear-gradient-11" x1="174.79" y1="85.45" x2="174.81" y2="85.46" xlink:href="#linear-gradient"/><linearGradient id="linear-gradient-12" x1="173.88" y1="85.96" x2="173.93" y2="85.99" xlink:href="#linear-gradient"/><linearGradient id="linear-gradient-13" x1="173.5" y1="86.17" x2="173.56" y2="86.21" xlink:href="#linear-gradient"/><linearGradient id="linear-gradient-14" x1="172.93" y1="86.52" x2="172.97" y2="86.55" xlink:href="#linear-gradient"/><linearGradient id="linear-gradient-15" x1="173.19" y1="86.37" x2="173.23" y2="86.39" xlink:href="#linear-gradient"/><linearGradient id="linear-gradient-16" x1="34.6" y1="380.84" x2="34.69" y2="380.89" xlink:href="#linear-gradient"/><linearGradient id="linear-gradient-17" x1="40.64" y1="398.29" x2="40.65" y2="398.3" xlink:href="#linear-gradient"/><linearGradient id="linear-gradient-18" x1="36.79" y1="388.32" x2="36.83" y2="388.35" xlink:href="#linear-gradient"/><linearGradient id="linear-gradient-19" x1="35.61" y1="384.64" x2="35.76" y2="384.73" xlink:href="#linear-gradient"/><linearGradient id="linear-gradient-20" x1="32.79" y1="372.78" x2="32.89" y2="372.84" xlink:href="#linear-gradient"/><linearGradient id="linear-gradient-21" x1="39.36" y1="173.66" x2="172.74" y2="250.67" xlink:href="#linear-gradient"/><linearGradient id="linear-gradient-22" x1="-857.7" y1="-147.29" x2="146.73" y2="432.62" xlink:href="#linear-gradient"/><linearGradient id="linear-gradient-23" x1="-16.14" y1="338.58" x2="190.68" y2="457.99" xlink:href="#linear-gradient"/><linearGradient id="linear-gradient-24" x1="121.8" y1="57.14" x2="257.45" y2="135.46" xlink:href="#linear-gradient"/><linearGradient id="linear-gradient-25" x1="140.21" y1="67.77" x2="347.03" y2="187.18" xlink:href="#linear-gradient"/><linearGradient id="linear-gradient-26" x1="-1744.93" y1="-856.58" x2="623.49" y2="510.83" gradientUnits="userSpaceOnUse"><stop offset="0" stop-color="#2d96d2"/><stop offset="0" stop-color="#2d94d1"/><stop offset="1" stop-color="#2057a1"/></linearGradient><linearGradient id="linear-gradient-27" x1="121.91" y1="56.92" x2="258.23" y2="135.62" xlink:href="#linear-gradient"/><linearGradient id="linear-gradient-28" x1="140.34" y1="67.56" x2="347.16" y2="186.96" xlink:href="#linear-gradient"/><linearGradient id="linear-gradient-29" x1="122.11" y1="56.7" x2="259.05" y2="135.76" xlink:href="#linear-gradient"/><linearGradient id="linear-gradient-30" x1="140.48" y1="67.31" x2="347.3" y2="186.71" xlink:href="#linear-gradient"/><linearGradient id="linear-gradient-31" x1="122.38" y1="56.44" x2="260.02" y2="135.9" xlink:href="#linear-gradient"/><linearGradient id="linear-gradient-32" x1="140.66" y1="66.99" x2="347.48" y2="186.4" xlink:href="#linear-gradient"/><linearGradient id="linear-gradient-33" x1="122.74" y1="56.18" x2="261.02" y2="136.02" xlink:href="#linear-gradient"/><linearGradient id="linear-gradient-34" x1="140.86" y1="66.65" x2="347.68" y2="186.05" xlink:href="#linear-gradient"/><linearGradient id="linear-gradient-35" x1="123.17" y1="55.9" x2="262.15" y2="136.14" xlink:href="#linear-gradient"/><linearGradient id="linear-gradient-36" x1="141.09" y1="66.25" x2="347.91" y2="185.66" xlink:href="#linear-gradient"/><linearGradient id="linear-gradient-37" x1="-743.95" y1="-77.54" x2="135.51" y2="430.21" xlink:href="#linear-gradient"/><linearGradient id="linear-gradient-38" x1="-17.9" y1="341.64" x2="188.91" y2="461.04" xlink:href="#linear-gradient"/><linearGradient id="linear-gradient-39" x1="-1011.89" y1="-240.63" x2="162.88" y2="437.62" xlink:href="#linear-gradient"/><linearGradient id="linear-gradient-40" x1="-14.27" y1="335.34" x2="192.55" y2="454.75" xlink:href="#linear-gradient"/><linearGradient id="linear-gradient-41" x1="-482.72" y1="86.92" x2="114.39" y2="431.66" xlink:href="#linear-gradient"/><linearGradient id="linear-gradient-42" x1="-23.81" y1="351.87" x2="183.01" y2="471.28" xlink:href="#linear-gradient"/><linearGradient id="linear-gradient-43" x1="-2204.75" y1="-943.26" x2="299.29" y2="502.44" xlink:href="#linear-gradient"/><linearGradient id="linear-gradient-44" x1="-8.24" y1="324.89" x2="198.58" y2="444.3" xlink:href="#linear-gradient"/><linearGradient id="linear-gradient-45" x1="-1233.67" y1="-373.03" x2="187.33" y2="447.38" xlink:href="#linear-gradient"/><linearGradient id="linear-gradient-46" x1="-12.38" y1="332.07" x2="194.44" y2="451.48" xlink:href="#linear-gradient"/><linearGradient id="linear-gradient-47" x1="-1580.81" y1="-577.98" x2="226.87" y2="465.69" xlink:href="#linear-gradient"/><linearGradient id="linear-gradient-48" x1="-10.43" y1="328.69" x2="196.39" y2="448.09" xlink:href="#linear-gradient"/><linearGradient id="linear-gradient-49" x1="-3658.05" y1="-1787.67" x2="470.54" y2="595.97" xlink:href="#linear-gradient"/><linearGradient id="linear-gradient-50" x1="-5.92" y1="320.89" x2="200.89" y2="440.29" xlink:href="#linear-gradient"/><linearGradient id="linear-gradient-51" x1="121.9" y1="57.56" x2="256.07" y2="135.03" xlink:href="#linear-gradient"/><linearGradient id="linear-gradient-52" x1="140.06" y1="68.05" x2="346.87" y2="187.45" xlink:href="#linear-gradient"/><linearGradient id="linear-gradient-53" x1="-619.93" y1="-0.55" x2="124.38" y2="429.17" xlink:href="#linear-gradient"/><linearGradient id="linear-gradient-54" x1="-20.24" y1="345.68" x2="186.58" y2="465.09" xlink:href="#linear-gradient"/><linearGradient id="linear-gradient-55" x1="-407.67" y1="135.6" x2="111.27" y2="435.21" xlink:href="#linear-gradient"/><linearGradient id="linear-gradient-56" x1="-26.13" y1="355.88" x2="180.69" y2="475.29" xlink:href="#linear-gradient"/><linearGradient id="linear-gradient-57" x1="121.8" y1="57.33" x2="256.82" y2="135.28" xlink:href="#linear-gradient"/><linearGradient id="linear-gradient-58" x1="140.13" y1="67.91" x2="346.95" y2="187.32" xlink:href="#linear-gradient"/><linearGradient id="linear-gradient-59" x1="-530.22" y1="56.33" x2="117.32" y2="430.19" xlink:href="#linear-gradient"/><linearGradient id="linear-gradient-60" x1="-22.44" y1="349.5" x2="184.37" y2="468.91" xlink:href="#linear-gradient"/><linearGradient id="linear-gradient-61" x1="-10940.83" y1="-5997.95" x2="1335.8" y2="1089.96" xlink:href="#linear-gradient"/><linearGradient id="linear-gradient-62" x1="-3.51" y1="316.71" x2="203.31" y2="436.12" xlink:href="#linear-gradient"/><linearGradient id="linear-gradient-63" x1="299.16" y1="414.34" x2="375.8" y2="414.34" xlink:href="#linear-gradient"/><linearGradient id="linear-gradient-64" x1="189.68" y1="453.05" x2="217.8" y2="453.05" xlink:href="#linear-gradient"/><linearGradient id="linear-gradient-65" x1="189.68" y1="453.3" x2="217.8" y2="453.3" xlink:href="#linear-gradient"/><linearGradient id="linear-gradient-66" x1="189.32" y1="452.97" x2="452.2" y2="452.97" xlink:href="#linear-gradient"/><linearGradient id="linear-gradient-67" x1="189.23" y1="491.07" x2="231.8" y2="491.07" xlink:href="#linear-gradient"/><linearGradient id="linear-gradient-68" x1="171.79" y1="357.93" x2="205.03" y2="357.93" xlink:href="#linear-gradient"/><linearGradient id="linear-gradient-69" x1="357.79" y1="419.34" x2="357.82" y2="419.34" xlink:href="#linear-gradient"/><linearGradient id="linear-gradient-70" x1="238.48" y1="32.05" x2="314.81" y2="32.05" gradientUnits="userSpaceOnUse"><stop offset="0.07" stop-color="#c914bc"/><stop offset="0.59" stop-color="#911ac4"/><stop offset="0.99" stop-color="#731ac4"/></linearGradient><linearGradient id="linear-gradient-71" x1="298.7" y1="384.53" x2="317.88" y2="384.53" xlink:href="#linear-gradient"/><linearGradient id="linear-gradient-72" x1="183.13" y1="323.55" x2="316.46" y2="323.55" xlink:href="#linear-gradient"/><linearGradient id="linear-gradient-73" x1="128.51" y1="242.09" x2="185.09" y2="242.09" xlink:href="#linear-gradient"/><linearGradient id="linear-gradient-74" x1="174.01" y1="251.33" x2="186.42" y2="258.49" gradientTransform="translate(351.71 -5.95) rotate(68.58)" xlink:href="#linear-gradient"/><linearGradient id="linear-gradient-75" x1="176.37" y1="259.95" x2="207.91" y2="259.95" xlink:href="#linear-gradient"/><linearGradient id="linear-gradient-76" x1="204.89" y1="267.65" x2="208.38" y2="269.67" gradientTransform="matrix(0.37, 0.93, -0.93, 0.37, 381.28, -21.81)" xlink:href="#linear-gradient"/></defs><title>eye</title><g id="Layer_2" data-name="Layer 2"><g id="Layer_1-2" data-name="Layer 1"><path class="cls-1" d="M29.94,349.14c0,.23,0,.46,0,.69C30,349.6,29.95,349.37,29.94,349.14Z"/><path class="cls-2" d="M29.66,343.77c0,.27,0,.54,0,.81Q29.68,344.17,29.66,343.77Z"/><path class="cls-3" d="M29.51,338.34c0,.22,0,.45,0,.68C29.51,338.79,29.51,338.57,29.51,338.34Z"/><path class="cls-4" d="M30.32,354.39l0,.24Z"/><path class="cls-5" d="M31.35,363.67l.07.52Z"/><path class="cls-6" d="M30.79,359.11l0,.27Z"/><path class="cls-7" d="M32,368.25l.08.47Z"/><path class="cls-8" d="M172.62,86.73l-.07,0Z"/><path class="cls-9" d="M172.76,86.65l0,0Z"/><path class="cls-10" d="M174.37,85.7l-.09.05Z"/><path class="cls-11" d="M174.82,85.45l0,0Z"/><path class="cls-12" d="M174,85.94l-.1.06Z"/><path class="cls-13" d="M173.58,86.16l-.11.06Z"/><path class="cls-14" d="M173,86.51l-.08.05Z"/><path class="cls-15" d="M173.25,86.36l-.08,0Z"/><path class="cls-16" d="M34.62,380.79l0,.14Z"/><path class="cls-17" d="M40.64,398.28v0Z"/><path class="cls-18" d="M36.8,388.3l0,.06Z"/><path class="cls-19" d="M35.65,384.57l.06.22Z"/><path class="cls-20" d="M32.82,372.72l0,.18Z"/><path class="cls-21" d="M53.19,417.63a65.51,65.51,0,0,1-8-10.63,80.69,80.69,0,0,1-4.55-8.7v0a98.69,98.69,0,0,1-3.82-9.92l0-.06q-.56-1.72-1.08-3.51l-.06-.22q-.51-1.78-1-3.64l0-.14q-1-3.79-1.77-7.9l0-.18q-.38-2-.71-4l-.08-.47q-.32-2-.61-4.06l-.07-.52c-.19-1.4-.37-2.83-.53-4.29l0-.27q-.24-2.2-.44-4.48l0-.24c-.13-1.49-.24-3-.34-4.56,0-.23,0-.46,0-.69q-.14-2.25-.24-4.56c0-.27,0-.54,0-.81q-.09-2.34-.15-4.75c0-.22,0-.45,0-.68,0-1.7-.05-3.41-.05-5.16,0-166.33,143-246.37,143-246.37l.06,0,.07,0,.1-.06,0,0,.14-.08.08-.05.18-.11.08,0,.23-.13.11-.06.27-.16.1-.06.33-.19.09-.05.4-.23,0,0c10.09-5.76,51.27-27.45,86.26-19.67a57.75,57.75,0,0,1,15.17,5.62l-28.43-16.3h0C205.86,31,143,69.94,143,69.94S0,150,0,316.31c0,34.31,6.09,57.92,15.75,73.82A60.11,60.11,0,0,0,34.1,409.54h0l.31.18Q36.27,411,38.2,412l26.67,15.26,0,0A56.36,56.36,0,0,1,53.19,417.63Z"/><path class="cls-22" d="M31.42,364.19q.29,2.07.61,4.06Q31.7,366.25,31.42,364.19Z"/><path class="cls-23" d="M31.42,364.19q.29,2.07.61,4.06Q31.7,366.25,31.42,364.19Z"/><path class="cls-24" d="M172.9,86.56l-.14.08Z"/><path class="cls-25" d="M172.9,86.56l-.14.08Z"/><path class="cls-26" d="M290,82a54.71,54.71,0,0,0-13.73-10.65,57.75,57.75,0,0,0-15.17-5.62,73.14,73.14,0,0,0-15.47-1.65h-.85c-.7,0-1.41,0-2.11,0l-1.09,0-2,.11-1.15.07-2,.17-1.15.11-2,.23-1.13.15-2,.29-1.05.17-2.08.36L226,66l-2.19.43-.6.13c-3.62.77-7.16,1.69-10.59,2.7l-.45.13L210,70.1l-.7.22-2,.66-.79.26-1.92.66-.8.28-1.86.68-.76.29-1.83.7-.68.27-1.83.73-.51.21c-2.94,1.2-5.69,2.41-8.19,3.57l-.17.08-1.51.71-.53.25-1.31.64-.6.29-1.17.58-.63.32-1,.53-.62.32-.93.49-.59.31-.82.44-.57.31-.7.38-.6.33-.52.29-1,.55,0,0-.4.23-.09.05-.33.19-.1.06-.27.16-.11.06-.23.13-.08,0-.18.11-.08.05-.14.08,0,0-.1.06-.07,0-.06,0s-143,80-143,246.37c0,1.75,0,3.47.05,5.16,0,.22,0,.45,0,.68q.05,2.41.15,4.75,0,.41,0,.81.1,2.32.24,4.56c0,.23,0,.46,0,.69.1,1.54.21,3.07.34,4.56l0,.24q.2,2.28.44,4.48l0,.27c.16,1.46.34,2.88.53,4.29l.07.52q.29,2.07.61,4.06l.08.47q.34,2,.71,4l0,.18q.8,4.11,1.77,7.9l0,.14q.48,1.86,1,3.64l.06.22q.52,1.79,1.08,3.51l0,.06a98.77,98.77,0,0,0,3.82,9.92v0c.42.94.86,1.85,1.31,2.75l.12.25h0c1,2,2,3.9,3.12,5.69a65.51,65.51,0,0,0,8,10.63,56.36,56.36,0,0,0,11.65,9.61c42.33,26.24,107.56-12.35,107.56-12.35s141.72-76.72,141.72-246.3C314.13,124.09,304.37,97.33,290,82ZM160,379.82S84.4,424.57,53.2,373.2C45.09,359.85,40,340,40,311.21c0-139.66,120.1-206.87,120.1-206.87s64.7-40.1,98.65-4C270.81,113.18,279,135.65,279,173,279,315.4,160,379.82,160,379.82Z"/><path class="cls-27" d="M173.16,86.41l-.18.11Z"/><path class="cls-28" d="M173.16,86.41l-.18.11Z"/><path class="cls-29" d="M173.48,86.22l-.23.13Z"/><path class="cls-30" d="M173.48,86.22l-.23.13Z"/><path class="cls-31" d="M173.85,86l-.27.16Z"/><path class="cls-32" d="M173.85,86l-.27.16Z"/><path class="cls-33" d="M174.28,85.75l-.33.19Z"/><path class="cls-34" d="M174.28,85.75l-.33.19Z"/><path class="cls-35" d="M174.78,85.47l-.4.23Z"/><path class="cls-36" d="M174.78,85.47l-.4.23Z"/><path class="cls-37" d="M32.11,368.72q.34,2,.71,4Q32.44,370.76,32.11,368.72Z"/><path class="cls-38" d="M32.11,368.72q.34,2,.71,4Q32.44,370.76,32.11,368.72Z"/><path class="cls-39" d="M30.82,359.39c.16,1.46.34,2.88.53,4.29C31.16,362.27,31,360.84,30.82,359.39Z"/><path class="cls-40" d="M30.82,359.39c.16,1.46.34,2.88.53,4.29C31.16,362.27,31,360.84,30.82,359.39Z"/><path class="cls-41" d="M35.72,384.8q.52,1.79,1.08,3.51Q36.24,386.59,35.72,384.8Z"/><path class="cls-42" d="M35.72,384.8q.52,1.79,1.08,3.51Q36.24,386.59,35.72,384.8Z"/><path class="cls-43" d="M29.7,344.58q.1,2.32.24,4.56Q29.8,346.9,29.7,344.58Z"/><path class="cls-44" d="M29.7,344.58q.1,2.32.24,4.56Q29.8,346.9,29.7,344.58Z"/><path class="cls-45" d="M30.34,354.63q.2,2.28.44,4.48Q30.54,356.91,30.34,354.63Z"/><path class="cls-46" d="M30.34,354.63q.2,2.28.44,4.48Q30.54,356.91,30.34,354.63Z"/><path class="cls-47" d="M30,349.83c.1,1.54.21,3.07.34,4.56C30.19,352.9,30.08,351.38,30,349.83Z"/><path class="cls-48" d="M30,349.83c.1,1.54.21,3.07.34,4.56C30.19,352.9,30.08,351.38,30,349.83Z"/><path class="cls-49" d="M29.52,339q.05,2.41.15,4.75Q29.57,341.43,29.52,339Z"/><path class="cls-50" d="M29.52,339q.05,2.41.15,4.75Q29.57,341.43,29.52,339Z"/><path class="cls-51" d="M172.55,86.77l-.06,0Z"/><path class="cls-52" d="M172.55,86.77l-.06,0Z"/><path class="cls-53" d="M32.86,372.89q.8,4.11,1.77,7.9Q33.66,377,32.86,372.89Z"/><path class="cls-54" d="M32.86,372.89q.8,4.11,1.77,7.9Q33.66,377,32.86,372.89Z"/><path class="cls-55" d="M36.82,388.37a98.69,98.69,0,0,0,3.82,9.92A98.77,98.77,0,0,1,36.82,388.37Z"/><path class="cls-56" d="M36.82,388.37a98.69,98.69,0,0,0,3.82,9.92A98.77,98.77,0,0,1,36.82,388.37Z"/><path class="cls-57" d="M172.72,86.67l-.1.06Z"/><path class="cls-58" d="M172.72,86.67l-.1.06Z"/><path class="cls-59" d="M34.66,380.94q.48,1.86,1,3.64Q35.14,382.79,34.66,380.94Z"/><path class="cls-60" d="M34.66,380.94q.48,1.86,1,3.64Q35.14,382.79,34.66,380.94Z"/><path class="cls-61" d="M29.46,333.18c0,1.75,0,3.47.05,5.16C29.48,336.65,29.46,334.93,29.46,333.18Z"/><path class="cls-62" d="M29.46,333.18c0,1.75,0,3.47.05,5.16C29.48,336.65,29.46,334.93,29.46,333.18Z"/><ellipse class="cls-63" cx="157.06" cy="241.81" rx="12.37" ry="7" transform="translate(-125.4 299.73) rotate(-68.58)"/><path class="cls-64" d="M375.8,437c0,4.89-5.55,8.85-12.39,8.85-4.75,0-37.49-14.7-39.56-17.51l-.21-.29L299.16,386l18.06-3.21,57.08,50s0,0,0,0A7,7,0,0,1,375.8,437Z"/><path class="cls-65" d="M205.38,454.18a2.92,2.92,0,0,0,1-2.07c0-.06,0-.12,0-.19L205,452Z"/><path class="cls-66" d="M190.77,454.27l-.19-1.94-.87,0A3.08,3.08,0,0,0,190.77,454.27Z"/><path class="cls-67" d="M206.35,451.93a3.49,3.49,0,0,0-1.72-2.48L205,452l-14.45.37-.19-2a2.74,2.74,0,0,0-.7,1.75,2.33,2.33,0,0,0,0,.24,3.08,3.08,0,0,0,1.06,1.92c1.43,1.33,4.14,2.23,7.26,2.23s5.95-.94,7.35-2.32a2.92,2.92,0,0,0,1-2.07C206.36,452,206.35,452,206.35,451.93Z"/><path class="cls-68" d="M231.8,523.16l-.08.37c-.93,3.81-5.56,6.69-11.15,6.69-6.26,0-31.34-13.63-31.34-18.1l.45-59.77h0a3.07,3.07,0,0,0,1.05,1.92c1.44,1.33,4.15,2.23,7.26,2.23s6-.94,7.36-2.32a2.93,2.93,0,0,0,1-2.07,1.1,1.1,0,0,0,0-.18h0Z"/><path class="cls-69" d="M205,452a.62.62,0,0,1,0,.19c0,2.08-3.24,3.76-7.23,3.76s-7-1.58-7.2-3.58h0l-.2-2L171.79,259.95l3.91,6.47,28.93,183L205,452Z"/><path class="cls-70" d="M357.82,419.35h0s0,0,0,0Z"/><path class="cls-71" d="M311.91,37.26a36,36,0,0,0-1.52-3.57,54.05,54.05,0,0,0-11.92-15.44c-1.27-1.16-2.6-2.3-4-3.4l-.09-.07-1.23-1,0,0,0,0a8.61,8.61,0,0,0-3.86-1.41,1.4,1.4,0,0,0-1.31-.89l-1.1,0a8.52,8.52,0,0,1,1.63-.16,7.51,7.51,0,0,1,.82.05c.15,0,.31,0,.46.06a63.23,63.23,0,0,0-22.63-9.56c-1.43-.27-2.84-.47-4.22-.6a6.84,6.84,0,0,0-.79,0,7.34,7.34,0,0,0-2.67.52,1.26,1.26,0,0,0-.61-.15,6.16,6.16,0,0,0-1.62.28A10.11,10.11,0,0,1,258.48,1,24.07,24.07,0,0,0,246,4.37h0c-.3.19-.58.41-.87.61l-.38.27c-.18.14-.35.29-.52.44s-.46.38-.67.58-.29.3-.43.45-.43.44-.63.67-.29.37-.44.56-.26.31-.38.48h0c-.09.12-.19.23-.27.36a15.07,15.07,0,0,0-2.1,4.91c-.12.5-.21,1-.28,1.53-1.21,8.62,3.82,19.48,13.31,28.86a30.42,30.42,0,0,1-3-7.48,1.64,1.64,0,0,0,1,.18c1.37,5,3.64,9,6.41,11.32l-.16-.12h0q1.9,1.57,4,3.05c.66.47,1.33.94,2,1.39a64.85,64.85,0,0,0,20.21,9.08h0A14,14,0,0,1,281,59.9a11.07,11.07,0,0,0,1.39,0,9.52,9.52,0,0,0,5,2.5h0c.42.06.84.1,1.25.15,1.08.13,2.14.23,3.18.27,8.54.35,15.64-2.18,19.32-7.73a14.81,14.81,0,0,0,1.63-3.28,10.41,10.41,0,0,1-4,3.2,7.16,7.16,0,0,0,.73-1.15,1.59,1.59,0,0,0,.15-.49,8.61,8.61,0,0,0,2.73-2.85,8.11,8.11,0,0,0,.74-1.71l.09-.32,0-.12a1.29,1.29,0,0,0,0-.19.14.14,0,0,0,0-.06c0-.19.07-.37.1-.57,0,0,0-.06,0-.09s0-.32,0-.48h.18A25.34,25.34,0,0,0,311.91,37.26ZM241.12,9.44h0c.08-.14.17-.27.26-.4C241.29,9.17,241.2,9.3,241.12,9.44Zm.39-.6c.12-.18.26-.35.4-.51l0,0Q241.71,8.55,241.5,8.84Zm68.62,27.4s0,0,0,0h0Zm3.3,10.36c0-.26,0-.52,0-.78,0,.1,0,.2,0,.3S313.44,46.44,313.43,46.6Z"/><path class="cls-63" d="M311,55.23a14.81,14.81,0,0,0,1.63-3.28,10.41,10.41,0,0,1-4,3.2,7.16,7.16,0,0,0,.73-1.15,1.59,1.59,0,0,0,.15-.49,8.61,8.61,0,0,0,2.73-2.85,8.11,8.11,0,0,0,.74-1.71l.09-.32,0-.12a1.29,1.29,0,0,0,0-.19.14.14,0,0,0,0-.06c0-.19.07-.37.1-.57,0,0,0-.06,0-.09s0-.32,0-.48h.18a25.34,25.34,0,0,0-1.67-9.74,36,36,0,0,0-1.52-3.57,54.05,54.05,0,0,0-11.92-15.44c-1.27-1.16-2.6-2.3-4-3.4l-.09-.07-1.23-1,0,0,0,0a8.61,8.61,0,0,0-3.86-1.41,1.4,1.4,0,0,0-1.31-.89l-1.1,0a8.52,8.52,0,0,1,1.63-.16,7.51,7.51,0,0,1,.82.05c.15,0,.31,0,.46.06A63.23,63.23,0,0,0,267.07,2c-1.43-.27-2.84-.47-4.22-.6a6.84,6.84,0,0,0-.79,0,7.34,7.34,0,0,0-2.67.52,1.26,1.26,0,0,0-.61-.15,6.16,6.16,0,0,0-1.62.28c.26-.18.53-.35.8-.5A17.37,17.37,0,0,0,247.9,9.07c-6.88,11.91,4,31,24.21,42.74,11.63,6.71,23.82,9.5,33.4,8.41A15.45,15.45,0,0,0,311,55.23Zm2.4-9.29c0,.1,0,.2,0,.3s0,.32,0,.48C313.44,46.46,313.43,46.2,313.43,45.94Zm-3.3-9.59h0s0,0,0,0Z"/><path class="cls-72" d="M311.93,37.33h0a24.87,24.87,0,0,1,1.57,7.88c.08,4.5-1.86,6.63-4.56,8.11a12,12,0,0,1-2.3,1.06l-.15.06-.3.09a22.12,22.12,0,0,1-6.6.9c-6.41,0-14.45-2-22.64-5.56a41.52,41.52,0,0,1-1.82-12.36c0-10.77,3.75-20.2,9.32-23.47.34-.19.68-.36,1-.51a7.51,7.51,0,0,1,7.31.77l.06,0,1.22,1,.09.07c1.31,1,2.65,2.17,4,3.38l2.62,2.39-1.85-3c-2.52-4.11-5.68-6.56-9.1-7.08l-.35,0-.16,0a8.92,8.92,0,0,0-4.23.59A10.73,10.73,0,0,0,284,12c-.35.19-.69.39-1.06.62s-.57.41-.85.63c-5.44,4.29-9,13.8-9,24.22,0,.56,0,1.11,0,1.66l.06,1.2,0,.46a.8.8,0,0,1,0,.12.71.71,0,0,0,0,.2v.18h0c0,.08,0,.16,0,.25l0,.35s0,.09,0,.12l.1.87c0,.35.08.69.13,1,.07.52.15,1,.24,1.54s.19,1,.31,1.49.22,1,.35,1.46l.08.33c-2.32-1.1-4.55-2.27-6.64-3.48-.66-.38-1.3-.77-1.94-1.15-1.33-.81-2.58-1.61-3.71-2.39-.56-.38-1.11-.76-1.65-1.16-.71-.5-1.4-1-2.07-1.51l-1.34-1c-1-.81-2.09-1.69-3.16-2.63-.71-.62-1.44-1.29-2.33-2.15-.36-.35-.72-.7-1.05-1l-.32-.33-.51-.53a43.13,43.13,0,0,1-.35-5.56c0-13.23,5.67-24,12.64-24,.1,0,.2,0,.32,0a25.38,25.38,0,0,1,5.45.32l2,.33h0C267.8.09,261.28-.73,258.26.72A13,13,0,0,0,254.18,4l-.67.82-.14.18c-.22.29-.43.58-.58.83l-.07.1A25.74,25.74,0,0,0,251,9l-.11.23-.23.52c-.09.21-.18.41-.26.61l-.23.58c-.14.37-.28.74-.42,1.12l-.05.16c-.12.34-.24.69-.34,1s-.16.51-.23.76-.17.63-.25.94-.13.51-.21.83l-.29,1.33c0,.12-.05.24-.07.37-.11.59-.21,1.17-.3,1.78,0,.08,0,.15,0,.23l0,.18c-.07.5-.13,1-.18,1.5l-.05.63c0,.46-.07.93-.1,1.4l0,.6c0,.66-.05,1.33-.05,2,0,1,0,2,.11,3.11-5.38-6.35-7.92-12.42-7-16.82a8.7,8.7,0,0,1,.33-1.32,11.47,11.47,0,0,1,.88-1.57,14.7,14.7,0,0,1,4.44-4.28l4.18-2.61-3.14,1c-2.75,1-6.25,3.33-7.49,5.49a10.75,10.75,0,0,0-1.28,6.6c.5,5,3.85,11,9.44,17a34.38,34.38,0,0,0,3.94,12.07c2.36,4.09,5.34,6.58,8.62,7.2l2.23.42-1.84-1.32c-1.17-.84-2.33-1.73-3.52-2.7h0l-.4-.34c-3-2.54-5.34-7.18-6.57-12.89A87.11,87.11,0,0,0,266.94,47c2.8,1.61,5.64,3.07,8.43,4.32A26.25,26.25,0,0,0,279.43,59l.13.17.13.14a15.59,15.59,0,0,0,2.8,2.69,10,10,0,0,0,5.92,2.06,9.41,9.41,0,0,0,3.47-.69l2.2-.87-2.37-.09c-.93,0-2-.12-3.14-.27l-.3,0-.9-.12h0c-3.77-.54-7.19-4-9.49-9.58,7.89,3.26,15.37,5,21.7,5s11-1.79,13.46-5.19c.2-.27.38-.55.55-.83C315.77,47.68,314.91,42.93,311.93,37.33Z"/><ellipse class="cls-73" cx="308.29" cy="384.53" rx="9.59" ry="4.77"/><path class="cls-74" d="M316.46,384.53c0,2.06-3.75,3.74-8.38,3.74-3.42,0-6.35-.92-7.65-2.22l-.12-.12L183.13,263.43l2.78-4.6L315.45,382.75A2.39,2.39,0,0,1,316.46,384.53Z"/><path class="cls-75" d="M141.79,218.64h0a4.06,4.06,0,0,0-.83-.46c-3.6-1.41-8.54,2.6-11,9-2.37,6-1.67,12,1.48,13.81h0l44,25.32,9.71-22.72Z"/><ellipse class="cls-76" cx="180.22" cy="254.91" rx="12.37" ry="7" transform="translate(-122.9 329.6) rotate(-68.58)"/><path class="cls-77" d="M184.14,248.43h0a2.37,2.37,0,0,0-.49-.27c-2.11-.83-5,1.52-6.46,5.24-1.39,3.53-1,7,.87,8.08h0l27.3,10.41,2.54-6.48Z"/><ellipse class="cls-78" cx="206.63" cy="268.66" rx="3.48" ry="1.97" transform="translate(-118.93 362.92) rotate(-68.58)"/></g></g></svg>