<svg xmlns="http://www.w3.org/2000/svg" viewBox="0 0 284.41 372.17">
	<defs>
		<linearGradient id="a" x1="-1774.52" y1="-54.06" x2="593.9" y2="1313.35" gradientTransform="translate(0 -866.63)" gradientUnits="userSpaceOnUse">
			<stop offset="0" stop-color="#2d96d2" />
			<stop offset="0" stop-color="#2d94d1" />
			<stop offset="1" stop-color="#2057a1" />
		</linearGradient>
	</defs>
	<path d="M260.36,18A54.71,54.71,0,0,0,246.63,7.27a57.75,57.75,0,0,0-15.17-5.62A73.14,73.14,0,0,0,216,0h-4.05l-2,.11-1.15.07-2,.17-1.15.11-2,.23-1.13.15-2,.29-1.05.17-2.08.36-1,.26-2.19.43-.6.13c-3.62.77-7.16,1.69-10.59,2.7l-.45.13L180.38,6l-.7.22-2,.66-.79.26L175,7.82l-.8.28-1.86.68-.76.29-1.83.7L169,10l-1.83.73-.51.21c-2.94,1.2-5.69,2.41-8.19,3.57l-.17.08-1.51.71-.53.25-1.31.64-.6.29-1.17.58-.63.32-1,.53-.62.32-.93.49-.59.31-.82.44-.57.31-.7.45-.6.33-.52.29-1,.55h0l-.4.23-.09,0-.33.19-.1.06-.27.16-.11.06-.23.13h-.08l-.18.11-.08,0-.14.08h0l-.1.06H143S0,102.62,0,269v5.84q0,2.41.15,4.75v.81q.1,2.32.24,4.56v.69c.1,1.54.21,3.07.34,4.56v.24q.2,2.28.44,4.48v.27c.16,1.46.34,2.88.53,4.29l.07.52q.29,2.07.61,4.06l.08.47q.34,2,.71,4v.18q.8,4.11,1.77,7.9v.14q.48,1.86,1,3.64l.06.22q.52,1.79,1.08,3.51v.06a98.77,98.77,0,0,0,3.82,9.92h0c.42.94.86,1.85,1.31,2.75l.12.25h0c1,2,2,3.9,3.12,5.69a65.51,65.51,0,0,0,8,10.63A56.36,56.36,0,0,0,35.1,363c42.36,26.24,107.59-12.38,107.59-12.38s141.72-76.72,141.72-246.3C284.49,60.05,274.73,33.27,260.36,18Zm-130,297.82s-75.6,44.75-106.8-6.62c-8.11-13.35-13.2-33.2-13.2-62,0-139.65,120.1-206.89,120.1-206.89s64.7-40.1,98.65-4c12.06,12.87,20.25,35.34,20.25,72.69C249.36,251.36,130.36,315.78,130.36,315.78Z" style="fill:url(#a)" />
</svg>
