<svg xmlns="http://www.w3.org/2000/svg" viewBox="0 0 276.36 379.94">
	<defs>
		<linearGradient id="a" x1="39.33" y1="993.02" x2="172.71" y2="1070.03" gradientTransform="translate(0 -866.63)" gradientUnits="userSpaceOnUse">
			<stop offset="0" stop-color="#2d96d2"/><stop offset="1" stop-color="#2057a1"/>
		</linearGradient>
	</defs>
	<path d="M53.19,370.31a65.51,65.51,0,0,1-8-10.63,80.69,80.69,0,0,1-4.55-8.7h0a98.69,98.69,0,0,1-3.82-9.92V341q-.56-1.72-1.08-3.51l-.06-.22q-.51-1.78-1-3.64v-.14q-1-3.79-1.77-7.9v-.18q-.38-2-.71-4l-.08-.47q-.32-2-.61-4.06l-.07-.52c-.19-1.4-.37-2.83-.53-4.29v-.27q-.24-2.2-.44-4.48v-.24c-.13-1.49-.24-3-.34-4.56v-.69q-.14-2.25-.24-4.56v-.81q-.09-2.34-.15-4.75v-5.87c0-166.33,143-246.37,143-246.37h.13l.1-.06h0l.14-.08.08,0,.18-.11h.08l.23-.13.11-.06.27-.16.1-.06.33-.19.09,0,.4-.23h0c10-5.72,51.22-27.41,86.21-19.63a57.75,57.75,0,0,1,15.17,5.62L247.93,8h0C205.86-16.32,143,22.62,143,22.62S0,102.68,0,269c0,34.31,6.09,57.92,15.75,73.82A60.11,60.11,0,0,0,34.1,362.22h0l.31.18a35.47,35.47,0,0,0,3.79,2.28l26.67,15.26h0A56.36,56.36,0,0,1,53.19,370.31Z" style="fill:url(#a)"/>
</svg>