<svg xmlns="http://www.w3.org/2000/svg" xmlns:xlink="http://www.w3.org/1999/xlink" viewBox="0 0 375.8 482.91"><defs><linearGradient id="a" x1="29.79" y1="165.29" x2="30.12" y2="165.1" gradientTransform="matrix(1, 0, 0, -1, 0, 467.37)" gradientUnits="userSpaceOnUse"><stop offset="0" stop-color="#2d96d2"/><stop offset="1" stop-color="#2057a1"/></linearGradient><linearGradient id="b" x1="29.48" y1="170.61" x2="29.86" y2="170.39" xlink:href="#a"/><linearGradient id="c" x1="29.36" y1="176.1" x2="29.66" y2="175.92" xlink:href="#a"/><linearGradient id="d" x1="30.27" y1="160.21" x2="30.39" y2="160.14" xlink:href="#a"/><linearGradient id="e" x1="31.25" y1="150.84" x2="31.52" y2="150.68" xlink:href="#a"/><linearGradient id="f" x1="30.73" y1="155.48" x2="30.87" y2="155.4" xlink:href="#a"/><linearGradient id="g" x1="31.93" y1="146.26" x2="32.19" y2="146.11" xlink:href="#a"/><linearGradient id="h" x1="172.58" y1="427.96" x2="172.61" y2="427.94" xlink:href="#a"/><linearGradient id="i" x1="172.76" y1="428.04" x2="172.76" y2="428.04" xlink:href="#a"/><linearGradient id="j" x1="174.31" y1="428.97" x2="174.35" y2="428.94" xlink:href="#a"/><linearGradient id="k" x1="174.82" y1="429.24" x2="174.82" y2="429.24" xlink:href="#a"/><linearGradient id="l" x1="173.89" y1="428.75" x2="173.94" y2="428.72" xlink:href="#a"/><linearGradient id="m" x1="173.5" y1="428.51" x2="173.56" y2="428.47" xlink:href="#a"/><linearGradient id="n" x1="172.93" y1="428.17" x2="172.97" y2="428.14" xlink:href="#a"/><linearGradient id="o" x1="173.2" y1="428.33" x2="173.24" y2="428.31" xlink:href="#a"/><linearGradient id="p" x1="34.6" y1="133.84" x2="34.69" y2="133.79" xlink:href="#a"/><linearGradient id="q" x1="40.64" y1="116.41" x2="40.64" y2="116.41" xlink:href="#a"/><linearGradient id="r" x1="36.79" y1="126.36" x2="36.83" y2="126.33" xlink:href="#a"/><linearGradient id="s" x1="35.61" y1="130.05" x2="35.76" y2="129.96" xlink:href="#a"/><linearGradient id="t" x1="32.78" y1="141.9" x2="32.88" y2="141.84" xlink:href="#a"/><linearGradient id="u" x1="39.33" y1="340.97" x2="172.71" y2="263.96" xlink:href="#a"/><linearGradient id="v" x1="-857.7" y1="661.98" x2="146.73" y2="82.07" xlink:href="#a"/><linearGradient id="w" x1="-16.14" y1="176.1" x2="190.68" y2="56.69" xlink:href="#a"/><linearGradient id="x" x1="121.8" y1="457.55" x2="257.45" y2="379.23" xlink:href="#a"/><linearGradient id="y" x1="140.21" y1="446.92" x2="347.03" y2="327.51" xlink:href="#a"/><linearGradient id="z" x1="-1744.88" y1="1371.34" x2="623.54" y2="3.93" gradientTransform="matrix(1, 0, 0, -1, 0, 467.37)" gradientUnits="userSpaceOnUse"><stop offset="0" stop-color="#2d96d2"/><stop offset="0" stop-color="#2d94d1"/><stop offset="1" stop-color="#2057a1"/></linearGradient><linearGradient id="aa" x1="121.91" y1="457.76" x2="258.23" y2="379.06" xlink:href="#a"/><linearGradient id="ab" x1="140.34" y1="447.12" x2="347.16" y2="327.72" xlink:href="#a"/><linearGradient id="ac" x1="122.11" y1="457.99" x2="259.05" y2="378.93" xlink:href="#a"/><linearGradient id="ad" x1="140.48" y1="447.38" x2="347.3" y2="327.98" xlink:href="#a"/><linearGradient id="ae" x1="122.38" y1="458.24" x2="260.02" y2="378.78" xlink:href="#a"/><linearGradient id="af" x1="140.66" y1="447.69" x2="347.48" y2="328.28" xlink:href="#a"/><linearGradient id="ag" x1="122.74" y1="458.5" x2="261.02" y2="378.66" xlink:href="#a"/><linearGradient id="ah" x1="140.86" y1="448.04" x2="347.68" y2="328.64" xlink:href="#a"/><linearGradient id="ai" x1="123.17" y1="458.78" x2="262.15" y2="378.54" xlink:href="#a"/><linearGradient id="aj" x1="141.09" y1="448.44" x2="347.91" y2="329.03" xlink:href="#a"/><linearGradient id="ak" x1="-743.95" y1="592.22" x2="135.51" y2="84.47" xlink:href="#a"/><linearGradient id="al" x1="-17.9" y1="173.04" x2="188.91" y2="53.64" xlink:href="#a"/><linearGradient id="am" x1="-1011.89" y1="755.31" x2="162.88" y2="77.06" xlink:href="#a"/><linearGradient id="an" x1="-14.27" y1="179.34" x2="192.55" y2="59.93" xlink:href="#a"/><linearGradient id="ao" x1="-482.72" y1="427.76" x2="114.39" y2="83.02" xlink:href="#a"/><linearGradient id="ap" x1="-23.81" y1="162.81" x2="183.01" y2="43.4" xlink:href="#a"/><linearGradient id="aq" x1="-2204.75" y1="1457.95" x2="299.29" y2="12.25" xlink:href="#a"/><linearGradient id="ar" x1="-8.24" y1="189.8" x2="198.58" y2="70.39" xlink:href="#a"/><linearGradient id="as" x1="-1233.67" y1="887.72" x2="187.33" y2="67.31" xlink:href="#a"/><linearGradient id="at" x1="-12.38" y1="182.61" x2="194.44" y2="63.2" xlink:href="#a"/><linearGradient id="au" x1="-1580.8" y1="1092.68" x2="226.88" y2="49.01" xlink:href="#a"/><linearGradient id="av" x1="-10.42" y1="186.01" x2="196.4" y2="66.61" xlink:href="#a"/><linearGradient id="aw" x1="-3658.04" y1="2302.37" x2="470.55" y2="-81.27" xlink:href="#a"/><linearGradient id="ax" x1="-5.91" y1="193.81" x2="200.9" y2="74.41" xlink:href="#a"/><linearGradient id="ay" x1="121.91" y1="457.14" x2="256.08" y2="379.67" xlink:href="#a"/><linearGradient id="az" x1="140.07" y1="446.65" x2="346.88" y2="327.25" xlink:href="#a"/><linearGradient id="ba" x1="-619.93" y1="515.24" x2="124.38" y2="85.52" xlink:href="#a"/><linearGradient id="bb" x1="-20.24" y1="169.01" x2="186.58" y2="49.6" xlink:href="#a"/><linearGradient id="bc" x1="-407.67" y1="379.08" x2="111.27" y2="79.47" xlink:href="#a"/><linearGradient id="bd" x1="-26.13" y1="158.8" x2="180.69" y2="39.39" xlink:href="#a"/><linearGradient id="be" x1="121.8" y1="457.35" x2="256.82" y2="379.4" xlink:href="#a"/><linearGradient id="bf" x1="140.13" y1="446.77" x2="346.95" y2="327.36" xlink:href="#a"/><linearGradient id="bg" x1="-530.22" y1="458.35" x2="117.32" y2="84.49" xlink:href="#a"/><linearGradient id="bh" x1="-22.44" y1="165.18" x2="184.37" y2="45.77" xlink:href="#a"/><linearGradient id="bi" x1="-10940.83" y1="6512.64" x2="1335.8" y2="-575.27" xlink:href="#a"/><linearGradient id="bj" x1="-3.51" y1="197.98" x2="203.31" y2="78.57" xlink:href="#a"/><linearGradient id="bk" x1="299.16" y1="100.37" x2="375.8" y2="100.37" xlink:href="#a"/><linearGradient id="bl" x1="189.68" y1="61.64" x2="217.8" y2="61.64" xlink:href="#a"/><linearGradient id="bm" x1="189.68" y1="61.39" x2="217.8" y2="61.39" xlink:href="#a"/><linearGradient id="bn" x1="189.32" y1="61.71" x2="452.2" y2="61.71" xlink:href="#a"/><linearGradient id="bo" x1="189.23" y1="23.61" x2="231.8" y2="23.61" xlink:href="#a"/><linearGradient id="bp" x1="171.79" y1="156.74" x2="205.01" y2="156.74" xlink:href="#a"/><linearGradient id="bq" x1="357.82" y1="95.34" x2="357.82" y2="95.34" xlink:href="#a"/><linearGradient id="br" x1="298.7" y1="130.16" x2="317.88" y2="130.16" xlink:href="#a"/><linearGradient id="bs" x1="183.13" y1="191.14" x2="316.46" y2="191.14" xlink:href="#a"/><linearGradient id="bt" x1="128.55" y1="272.58" x2="185.15" y2="272.58" xlink:href="#a"/><linearGradient id="bu" x1="174.01" y1="263.35" x2="186.42" y2="256.19" gradientTransform="matrix(0.37, 0.93, 0.93, -0.37, -127.43, 134.71)" xlink:href="#a"/><linearGradient id="bv" x1="176.36" y1="254.74" x2="207.9" y2="254.74" xlink:href="#a"/><linearGradient id="bw" x1="203.53" y1="245.37" x2="207.02" y2="243.35" gradientTransform="matrix(0.37, 0.93, 0.93, -0.37, -96.7, 121.77)" xlink:href="#a"/></defs><title>eye_wheel</title><path d="M29.94,301.83v.69A2.28,2.28,0,0,0,29.94,301.83Z" style="fill:url(#a)"/><path d="M29.66,296.46v.81Q29.68,296.86,29.66,296.46Z" style="fill:url(#b)"/><path d="M29.51,291v0Z" style="fill:url(#c)"/><path d="M30.32,307.08v0Z" style="fill:url(#d)"/><path d="M31.35,316.36l.07.52Z" style="fill:url(#e)"/><path d="M30.79,311.8v0Z" style="fill:url(#f)"/><path d="M32,320.94l.08.47Z" style="fill:url(#g)"/><path d="M172.62,39.42h0Z" style="fill:url(#h)"/><path d="M172.76,39.34Z" style="fill:url(#i)"/><path d="M174.37,38.39l-.09.05Z" style="fill:url(#j)"/><path d="M174.82,38.14Z" style="fill:url(#k)"/><path d="M174,38.63l-.1.06Z" style="fill:url(#l)"/><path d="M173.58,38.85l-.11.06Z" style="fill:url(#m)"/><path d="M173,39.2l-.08.05Z" style="fill:url(#n)"/><path d="M173.25,39h0Z" style="fill:url(#o)"/><path d="M34.62,333.48v0Z" style="fill:url(#p)"/><path d="M40.64,351Z" style="fill:url(#q)"/><path d="M36.8,341v0Z" style="fill:url(#r)"/><path d="M35.65,337.26l.06.22Z" style="fill:url(#s)"/><path d="M32.82,325.41v0Z" style="fill:url(#t)"/><path d="M53.19,370.32a65.51,65.51,0,0,1-8-10.63,80.69,80.69,0,0,1-4.55-8.7h0a98.69,98.69,0,0,1-3.82-9.92V341q-.56-1.72-1.08-3.51l-.06-.22q-.51-1.78-1-3.64v-.14q-1-3.79-1.77-7.9v-.18q-.38-2-.71-4l-.08-.47q-.32-2-.61-4.06l-.07-.52c-.19-1.4-.37-2.83-.53-4.29v-.27q-.24-2.2-.44-4.48v-.24c-.13-1.49-.24-3-.34-4.56v-.69q-.14-2.25-.24-4.56v-.81q-.09-2.34-.15-4.75V291c0-1.7,0-3.41,0-5.16,0-166.33,143-246.37,143-246.37h.13l.1-.06h0l.14-.08.08-.05.18-.11h.08l.23-.13.11-.06.27-.16.1-.06.33-.19.09-.05.4-.23h0C185,32.57,226.2,10.88,261.19,18.66a57.75,57.75,0,0,1,15.17,5.62L247.93,8h0C205.86-16.31,143,22.63,143,22.63S0,102.69,0,269c0,34.31,6.09,57.92,15.75,73.82A60.11,60.11,0,0,0,34.1,362.23h0l.31.18a35.47,35.47,0,0,0,3.79,2.28l26.67,15.26h0A56.36,56.36,0,0,1,53.19,370.32Z" style="fill:url(#u)"/><path d="M31.42,316.88q.29,2.07.61,4.06Q31.7,318.94,31.42,316.88Z" style="fill:url(#v)"/><path d="M31.42,316.88q.29,2.07.61,4.06Q31.7,318.94,31.42,316.88Z" style="fill:url(#w)"/><path d="M172.9,39.25l-.14.08Z" style="fill:url(#x)"/><path d="M172.9,39.25l-.14.08Z" style="fill:url(#y)"/><path d="M290,34.69A54.71,54.71,0,0,0,276.27,24a57.75,57.75,0,0,0-15.17-5.62,73.14,73.14,0,0,0-15.47-1.65h-4.05l-2,.11-1.15.07-2,.17-1.15.11-2,.23-1.13.15-2,.29-1.05.17-2.08.36-1,.26-2.19.43-.6.13c-3.62.77-7.16,1.69-10.59,2.7l-.45.13-2.17.71-.7.22-2,.66-.79.26-1.92.66-.8.28-1.86.68-.76.29-1.83.7-.68.27-1.83.73-.51.21c-2.94,1.2-5.69,2.41-8.19,3.57l-.17.08-1.51.71-.53.25-1.31.64-.6.29-1.17.58-.63.32-1,.53-.62.32-.93.49-.59.31-.82.44-.57.31L177,37l-.6.33-.52.29-1,.55h0l-.4.23-.09.05-.33.19-.1.06-.27.16-.11.06-.23.13h-.08l-.18.11-.08.05-.14.08h0l-.1.06h-.13s-143,80-143,246.37c0,1.75,0,3.47,0,5.16v.68q.05,2.41.15,4.75v.81q.1,2.32.24,4.56v.69c.1,1.54.21,3.07.34,4.56v.24q.2,2.28.44,4.48v.27c.16,1.46.34,2.88.53,4.29l.07.52q.29,2.07.61,4.06l.08.47q.34,2,.71,4v.18q.8,4.11,1.77,7.9v.14q.48,1.86,1,3.64l.06.22q.52,1.79,1.08,3.51v.06a98.77,98.77,0,0,0,3.82,9.92h0c.42.94.86,1.85,1.31,2.75l.12.25h0c1,2,2,3.9,3.12,5.69a65.51,65.51,0,0,0,8,10.63,56.36,56.36,0,0,0,11.65,9.61C107.1,406,172.33,367.38,172.33,367.38s141.72-76.72,141.72-246.3C314.13,76.78,304.37,50,290,34.69ZM160,332.51s-75.6,44.75-106.8-6.62c-8.11-13.35-13.2-33.2-13.2-62C40,124.24,160.1,57,160.1,57s64.7-40.1,98.65-4C270.81,65.87,279,88.34,279,125.69,279,268.09,160,332.51,160,332.51Z" style="fill:url(#z)"/><path d="M173.16,39.1l-.18.11Z" style="fill:url(#aa)"/><path d="M173.16,39.1l-.18.11Z" style="fill:url(#ab)"/><path d="M173.48,38.91l-.23.13Z" style="fill:url(#ac)"/><path d="M173.48,38.91l-.23.13Z" style="fill:url(#ad)"/><path d="M173.85,38.69l-.27.16Z" style="fill:url(#ae)"/><path d="M173.85,38.69l-.27.16Z" style="fill:url(#af)"/><path d="M174.28,38.44l-.33.19Z" style="fill:url(#ag)"/><path d="M174.28,38.44l-.33.19Z" style="fill:url(#ah)"/><path d="M174.78,38.16l-.4.23Z" style="fill:url(#ai)"/><path d="M174.78,38.16l-.4.23Z" style="fill:url(#aj)"/><path d="M32.11,321.41q.34,2,.71,4Q32.44,323.45,32.11,321.41Z" style="fill:url(#ak)"/><path d="M32.11,321.41q.34,2,.71,4Q32.44,323.45,32.11,321.41Z" style="fill:url(#al)"/><path d="M30.82,312.08c.16,1.46.34,2.88.53,4.29C31.16,315,31,313.53,30.82,312.08Z" style="fill:url(#am)"/><path d="M30.82,312.08c.16,1.46.34,2.88.53,4.29C31.16,315,31,313.53,30.82,312.08Z" style="fill:url(#an)"/><path d="M35.72,337.49q.52,1.79,1.08,3.51Q36.24,339.28,35.72,337.49Z" style="fill:url(#ao)"/><path d="M35.72,337.49q.52,1.79,1.08,3.51Q36.24,339.28,35.72,337.49Z" style="fill:url(#ap)"/><path d="M29.7,297.27q.1,2.32.24,4.56Q29.8,299.59,29.7,297.27Z" style="fill:url(#aq)"/><path d="M29.7,297.27q.1,2.32.24,4.56Q29.8,299.59,29.7,297.27Z" style="fill:url(#ar)"/><path d="M30.34,307.32q.2,2.28.44,4.48Q30.54,309.6,30.34,307.32Z" style="fill:url(#as)"/><path d="M30.34,307.32q.2,2.28.44,4.48Q30.54,309.6,30.34,307.32Z" style="fill:url(#at)"/><path d="M30,302.52c.1,1.54.21,3.07.34,4.56C30.19,305.59,30.08,304.07,30,302.52Z" style="fill:url(#au)"/><path d="M30,302.52c.1,1.54.21,3.07.34,4.56C30.19,305.59,30.08,304.07,30,302.52Z" style="fill:url(#av)"/><path d="M29.52,291.69q.05,2.41.15,4.75Q29.57,294.12,29.52,291.69Z" style="fill:url(#aw)"/><path d="M29.52,291.69q.05,2.41.15,4.75Q29.57,294.12,29.52,291.69Z" style="fill:url(#ax)"/><path d="M172.55,39.46h0Z" style="fill:url(#ay)"/><path d="M172.55,39.46h0Z" style="fill:url(#az)"/><path d="M32.86,325.58q.8,4.11,1.77,7.9Q33.66,329.69,32.86,325.58Z" style="fill:url(#ba)"/><path d="M32.86,325.58q.8,4.11,1.77,7.9Q33.66,329.69,32.86,325.58Z" style="fill:url(#bb)"/><path d="M36.82,341.06A98.69,98.69,0,0,0,40.64,351,98.77,98.77,0,0,1,36.82,341.06Z" style="fill:url(#bc)"/><path d="M36.82,341.06A98.69,98.69,0,0,0,40.64,351,98.77,98.77,0,0,1,36.82,341.06Z" style="fill:url(#bd)"/><path d="M172.72,39.36l-.1.06Z" style="fill:url(#be)"/><path d="M172.72,39.36l-.1.06Z" style="fill:url(#bf)"/><path d="M34.66,333.63q.48,1.86,1,3.64Q35.14,335.48,34.66,333.63Z" style="fill:url(#bg)"/><path d="M34.66,333.63q.48,1.86,1,3.64Q35.14,335.48,34.66,333.63Z" style="fill:url(#bh)"/><path d="M29.46,285.87c0,1.75,0,3.47,0,5.16C29.48,289.34,29.46,287.62,29.46,285.87Z" style="fill:url(#bi)"/><path d="M29.46,285.87c0,1.75,0,3.47,0,5.16C29.48,289.34,29.46,287.62,29.46,285.87Z" style="fill:url(#bj)"/><ellipse cx="157.07" cy="194.51" rx="12.37" ry="7" transform="translate(-81.37 269.69) rotate(-68.58)" style="fill:#6be3ee"/><path d="M375.8,389.69c0,4.89-5.55,8.85-12.39,8.85-4.75,0-37.49-14.7-39.56-17.51l-.21-.29-24.48-42,18.06-3.21,57.08,50h0A7,7,0,0,1,375.8,389.69Z" style="fill:url(#bk)"/><path d="M205.38,406.87a2.92,2.92,0,0,0,1-2.07v-.19l-1.38.08Z" style="fill:url(#bl)"/><path d="M190.77,407l-.19-1.94h-.87A3.08,3.08,0,0,0,190.77,407Z" style="fill:url(#bm)"/><path d="M206.35,404.62a3.49,3.49,0,0,0-1.72-2.48l.37,2.55-14.45.37-.19-2a2.74,2.74,0,0,0-.7,1.75,2.33,2.33,0,0,0,0,.24,3.08,3.08,0,0,0,1.06,1.92c1.43,1.33,4.14,2.23,7.26,2.23s5.95-.94,7.35-2.32a2.92,2.92,0,0,0,1-2.07A.48.48,0,0,0,206.35,404.62Z" style="fill:url(#bn)"/><path d="M231.8,475.85l-.08.37c-.93,3.81-5.56,6.69-11.15,6.69-6.26,0-31.34-13.63-31.34-18.1l.45-59.77h0a3.07,3.07,0,0,0,1.05,1.92c1.44,1.33,4.15,2.23,7.26,2.23s6-.94,7.36-2.32a2.93,2.93,0,0,0,1-2.07,1.1,1.1,0,0,0,0-.18h0Z" style="fill:url(#bo)"/><path d="M205,404.69a.62.62,0,0,1,0,.19c0,2.08-3.24,3.76-7.23,3.76s-7-1.58-7.2-3.58h0l-.2-2L171.79,212.64l3.91,6.47,28.93,183Z" style="fill:url(#bp)"/><path d="M357.82,372Z" style="fill:url(#bq)"/><ellipse cx="308.29" cy="337.22" rx="9.59" ry="4.77" style="fill:url(#br)"/><path d="M316.46,337.22c0,2.06-3.75,3.74-8.38,3.74-3.42,0-6.35-.92-7.65-2.22l-.12-.12L183.13,216.12l2.78-4.6L315.45,335.44A2.39,2.39,0,0,1,316.46,337.22Z" style="fill:url(#bs)"/><path d="M141.79,171.33h0a4.06,4.06,0,0,0-.83-.46c-3.6-1.41-8.54,2.6-11,9-2.37,6-1.67,12,1.48,13.81h0l44,25.32,9.71-22.72Z" style="fill:url(#bt)"/><ellipse cx="180.22" cy="207.61" rx="12.37" ry="7" transform="translate(-78.86 299.56) rotate(-68.58)" style="fill:url(#bu)"/><path d="M184.14,201.12h0a2.37,2.37,0,0,0-.49-.27c-2.11-.83-5,1.52-6.46,5.24-1.39,3.53-1,7,.87,8.08h0l27.3,10.41,2.54-6.48Z" style="fill:url(#bv)"/><ellipse cx="206.63" cy="221.36" rx="3.48" ry="1.97" transform="translate(-74.9 332.88) rotate(-68.58)" style="fill:url(#bw)"/></svg>