<svg xmlns="http://www.w3.org/2000/svg" viewBox="0 0 247.25 312.32">
	<defs>
		<linearGradient id="a" x1="170.61" y1="1063.08" x2="247.25" y2="1063.08" gradientTransform="translate(0 -866.63)" gradientUnits="userSpaceOnUse">
			<stop offset="0" stop-color="#2d96d2" />
			<stop offset="1" stop-color="#2057a1" />
		</linearGradient>
		<linearGradient id="b" x1="60.68" y1="1139.81" x2="103.25" y2="1139.81" xlink:href="#a" />
		<linearGradient id="c" x1="43.24" y1="1006.68" x2="76.46" y2="1006.68" xlink:href="#a" />
		<linearGradient id="d" x1="54.58" y1="972.28" x2="187.91" y2="972.28" xlink:href="#a" />
		<linearGradient id="e" x1="0" y1="890.84" x2="56.6" y2="890.84" xlink:href="#a" />
		<linearGradient id="f" x1="47.81" y1="908.67" x2="79.35" y2="908.67" xlink:href="#a" />
	</defs>
	<path d="M247.25,219.1c0,4.89-5.55,8.85-12.39,8.85-4.75,0-37.49-14.7-39.56-17.51l-.21-.29-24.48-42,18.06-3.21,57.08,50h0A7,7,0,0,1,247.25,219.1Z" style="fill:url(#a)" />
	<path d="M103.25,305.26l-.08.37c-.93,3.81-5.56,6.69-11.15,6.69-6.26,0-31.34-13.63-31.34-18.1l.45-59.77h0a3.07,3.07,0,0,0,1.05,1.92c1.44,1.33,4.15,2.23,7.26,2.23s6-.94,7.36-2.32a2.93,2.93,0,0,0,1-2.07,1.1,1.1,0,0,0,0-.18h0Z" style="fill:url(#b)" />
	<path d="M76.45,234.1a.62.62,0,0,1,0,.19c0,2.08-3.24,3.76-7.23,3.76s-7-1.58-7.2-3.58h0l-.2-2L43.24,42.05l3.91,6.47,28.93,183Z" style="fill:url(#c)" />
	<path d="M187.91,166.63c0,2.06-3.75,3.74-8.38,3.74-3.42,0-6.35-.92-7.65-2.22l-.12-.12L54.58,45.53l2.78-4.6L186.9,164.85A2.39,2.39,0,0,1,187.91,166.63Z" style="fill:url(#d)" />
	<path d="M13.24.74h0a4.06,4.06,0,0,0-.83-.46c-3.6-1.41-8.54,2.6-11,9-2.37,6-1.67,12,1.48,13.81h0l44,25.32L56.6,25.69Z" style="fill:url(#e)" />
	<path d="M55.59,30.53h0a2.37,2.37,0,0,0-.49-.27c-2.11-.83-5,1.52-6.46,5.24-1.39,3.53-1,7,.87,8.08h0L76.81,54l2.54-6.48Z" style="fill:url(#f)" />
</svg>
