<svg xmlns="http://www.w3.org/2000/svg" xmlns:xlink="http://www.w3.org/1999/xlink" viewBox="0 0 76.23 64.06"><defs><linearGradient id="a" x1="-0.09" y1="31.97" x2="76.24" y2="31.97" gradientTransform="matrix(1, 0, 0, -1, 0, 64)" gradientUnits="userSpaceOnUse"><stop offset="0.07" stop-color="#c914bc"/><stop offset="0.59" stop-color="#911ac4"/><stop offset="0.99" stop-color="#731ac4"/></linearGradient></defs><title>pod</title><path d="M73.34,37.26a36,36,0,0,0-1.52-3.57A54,54,0,0,0,59.9,18.25c-1.27-1.16-2.6-2.3-4-3.4l-.09-.07-1.23-1h0a8.61,8.61,0,0,0-3.86-1.41,1.4,1.4,0,0,0-1.31-.89h-1.1a8.52,8.52,0,0,1,1.63-.16,7.51,7.51,0,0,1,.82.05,1.22,1.22,0,0,1,.46.06A63.23,63.23,0,0,0,28.59,1.87c-1.43-.27-2.84-.47-4.22-.6a6.84,6.84,0,0,0-.79,0,7.34,7.34,0,0,0-2.67.52,1.26,1.26,0,0,0-.61-.15,6.16,6.16,0,0,0-1.62.28A10.11,10.11,0,0,1,19.91,1,24.07,24.07,0,0,0,7.43,4.37h0c-.3.19-.58.41-.87.61l-.38.27c-.18.14-.35.29-.52.44s-.46.38-.67.58-.29.3-.43.45-.43.44-.63.67-.29.37-.44.56-.26.31-.38.48h0c-.09.12-.19.23-.27.36A15.07,15.07,0,0,0,.74,13.7a14.78,14.78,0,0,0-.28,1.53C-.75,23.85,4.28,34.71,13.77,44.09a30.42,30.42,0,0,1-3-7.48,1.64,1.64,0,0,0,1,.18c1.37,5,3.64,9,6.41,11.32L18,48h0q1.9,1.57,4,3c.66.47,1.33.94,2,1.39a64.85,64.85,0,0,0,20.21,9.08h0a14,14,0,0,1-1.8-1.61,11.07,11.07,0,0,0,1.39,0,9.52,9.52,0,0,0,5,2.5h0l1.25.15c1.08.13,2.14.23,3.18.27,8.54.35,15.64-2.18,19.32-7.73a14.81,14.81,0,0,0,1.63-3.28,10.41,10.41,0,0,1-4,3.2,7.16,7.16,0,0,0,.73-1.15,1.59,1.59,0,0,0,.15-.49,8.61,8.61,0,0,0,2.73-2.85,8.11,8.11,0,0,0,.74-1.71l.09-.32v-.12a1.29,1.29,0,0,0,0-.19.14.14,0,0,0,0-.06,4,4,0,0,1,.1-.57V47h.18A25.34,25.34,0,0,0,73.34,37.26ZM2.55,9.44h0c.08-.14.17-.27.26-.4C2.72,9.17,2.63,9.3,2.55,9.44Zm.39-.6a5,5,0,0,1,.4-.51h0a5.93,5.93,0,0,0-.41.51Zm68.62,27.4Zm3.3,10.36v-.48C74.86,46.22,74.87,46.44,74.86,46.6Z" style="fill:#09d1e3"/><path d="M72.43,55.23A14.81,14.81,0,0,0,74.06,52a10.41,10.41,0,0,1-4,3.2A7.16,7.16,0,0,0,70.79,54a1.59,1.59,0,0,0,.15-.49,8.61,8.61,0,0,0,2.73-2.85A8.11,8.11,0,0,0,74.41,49l.09-.32v-.12a1.29,1.29,0,0,0,0-.19.14.14,0,0,0,0-.06,4,4,0,0,1,.1-.57v-.57h.18a25.34,25.34,0,0,0-1.67-9.74,36,36,0,0,0-1.52-3.57A54,54,0,0,0,59.67,18.37c-1.27-1.16-2.6-2.3-4-3.4l-.09-.07-1.23-1h0a8.61,8.61,0,0,0-3.86-1.41,1.4,1.4,0,0,0-1.31-.89h-1.1a8.52,8.52,0,0,1,1.63-.16,7.51,7.51,0,0,1,.82.05,1.22,1.22,0,0,1,.46.06A63.23,63.23,0,0,0,28.5,2c-1.43-.27-2.84-.47-4.22-.6a6.84,6.84,0,0,0-.79,0,7.34,7.34,0,0,0-2.67.52,1.26,1.26,0,0,0-.61-.15,6.16,6.16,0,0,0-1.62.28c.26-.18.53-.35.8-.5A17.37,17.37,0,0,0,9.33,9.07c-6.88,11.91,4,31,24.21,42.74,11.63,6.71,23.82,9.5,33.4,8.41A15.45,15.45,0,0,0,72.43,55.23Zm2.4-9.29v.78a5.09,5.09,0,0,0,0-.78Zm-3.3-9.59Z" style="fill:#6be3ee"/><path d="M73.36,37.33h0a24.87,24.87,0,0,1,1.57,7.88c.08,4.5-1.86,6.63-4.56,8.11a12,12,0,0,1-2.3,1.06l-.15.06-.3.09a22.12,22.12,0,0,1-6.6.9c-6.41,0-14.45-2-22.64-5.56a41.52,41.52,0,0,1-1.82-12.36c0-10.77,3.75-20.2,9.32-23.47.34-.19.68-.36,1-.51a7.51,7.51,0,0,1,7.31.77h.06l1.22,1,.09.07c1.31,1,2.65,2.17,4,3.38l2.62,2.39-1.85-3c-2.52-4.11-5.68-6.56-9.1-7.08h-.51a8.92,8.92,0,0,0-4.23.59,10.73,10.73,0,0,0-1.06.35c-.35.19-.69.39-1.06.62a8.17,8.17,0,0,0-.85.63c-5.44,4.29-9,13.8-9,24.22v1.66l.06,1.2v.46a.8.8,0,0,1,0,.12.71.71,0,0,0,0,.2v.18h0V42l.1.87a6.2,6.2,0,0,0,.13,1c.07.52.15,1,.24,1.54s.19,1,.31,1.49.22,1,.35,1.46l.08.33c-2.32-1.1-4.55-2.27-6.64-3.48-.66-.38-1.3-.77-1.94-1.15-1.33-.81-2.58-1.61-3.71-2.39-.56-.38-1.11-.76-1.65-1.16-.71-.5-1.4-1-2.07-1.51l-1.34-1c-1-.81-2.09-1.69-3.16-2.63-.71-.62-1.44-1.29-2.33-2.15-.36-.35-.72-.7-1.05-1l-.32-.33-.51-.53a43.13,43.13,0,0,1-.35-5.56c0-13.23,5.67-24,12.64-24h.32a25.38,25.38,0,0,1,5.45.32l2,.33h0C29.23.09,22.71-.73,19.69.72A13,13,0,0,0,15.61,4l-.67.82L14.8,5a9.9,9.9,0,0,0-.58.83l-.07.1A25.74,25.74,0,0,0,12.43,9l-.11.23-.23.52c-.09.21-.18.41-.26.61l-.23.58-.42,1.12-.05.16c-.12.34-.24.69-.34,1s-.16.51-.23.76-.17.63-.25.94l-.21.83-.29,1.33a2.66,2.66,0,0,1-.07.37c-.11.59-.21,1.17-.3,1.78v.41q-.11.75-.18,1.5l-.05.63c0,.46-.07.93-.1,1.4v.6c0,.66-.05,1.33-.05,2a30.44,30.44,0,0,0,.11,3.11c-5.38-6.35-7.92-12.42-7-16.82a8.7,8.7,0,0,1,.33-1.32,11.47,11.47,0,0,1,.88-1.57A14.7,14.7,0,0,1,7.82,4.89L12,2.28l-3.14,1c-2.75,1-6.25,3.33-7.49,5.49a10.75,10.75,0,0,0-1.28,6.6c.5,5,3.85,11,9.44,17a34.38,34.38,0,0,0,3.94,12.07c2.36,4.09,5.34,6.58,8.62,7.2l2.23.42-1.84-1.32C21.31,49.9,20.15,49,19,48h0l-.4-.34c-3-2.54-5.34-7.18-6.57-12.89A87.11,87.11,0,0,0,28.37,47c2.8,1.61,5.64,3.07,8.43,4.32A26.25,26.25,0,0,0,40.86,59l.13.17.13.14A15.59,15.59,0,0,0,43.92,62a10,10,0,0,0,5.92,2.06,9.41,9.41,0,0,0,3.47-.69l2.2-.87-2.37-.09A25.14,25.14,0,0,1,50,62.14h-.3L48.8,62h0c-3.77-.54-7.19-4-9.49-9.58,7.89,3.26,15.37,5,21.7,5s11-1.79,13.46-5.19c.2-.27.38-.55.55-.83C77.2,47.68,76.34,42.93,73.36,37.33Z" style="fill:url(#a)"/></svg>