<svg class="shard__svg" xmlns="http://www.w3.org/2000/svg" xmlns:xlink="http://www.w3.org/1999/xlink" viewBox="0 0 361.21 1280.48" width="361" height="1280">
	<defs>
		<style>
			.shard-cls-1{fill:url(#shard-linear-gradient);}.shard-cls-2{fill:#09d1e3;}.shard-cls-3{fill:url(#shard-linear-gradient-2);}.shard-cls-4{fill:url(#shard-linear-gradient-3);}.shard-cls-5{fill:url(#shard-linear-gradient-4);}.shard-cls-6{fill:url(#shard-linear-gradient-5);}.shard-cls-7{fill:url(#shard-linear-gradient-6);}.shard-cls-8{fill:url(#shard-linear-gradient-7);}.shard-cls-9{fill:url(#shard-linear-gradient-8);}.shard-cls-10{fill:url(#shard-linear-gradient-9);}.shard-cls-11{fill:#3c59a3;}.shard-cls-12{fill:url(#shard-linear-gradient-10);}.shard-cls-13{fill:url(#shard-linear-gradient-11);}.shard-cls-14{fill:url(#shard-linear-gradient-12);}.shard-cls-15{fill:url(#shard-linear-gradient-13);}.shard-cls-16{fill:url(#shard-linear-gradient-14);}.shard-cls-17{fill:url(#shard-linear-gradient-15);}.shard-cls-18{fill:url(#shard-linear-gradient-16);}.shard-cls-19{fill:url(#shard-linear-gradient-17);}.shard-cls-20{fill:url(#shard-linear-gradient-18);}.shard-cls-21{fill:url(#shard-linear-gradient-19);}.shard-cls-22{fill:url(#shard-linear-gradient-20);}.shard-cls-23{fill:url(#shard-linear-gradient-21);}.shard-cls-24{fill:url(#shard-linear-gradient-22);}.shard-cls-25{fill:url(#shard-linear-gradient-23);}.shard-cls-26{fill:url(#shard-linear-gradient-24);}.shard-cls-27{fill:url(#shard-linear-gradient-25);}.shard-cls-28{fill:url(#shard-linear-gradient-26);}.shard-cls-29{fill:url(#shard-linear-gradient-27);}.shard-cls-30{fill:url(#shard-linear-gradient-28);}.shard-cls-31{fill:url(#shard-linear-gradient-29);}.shard-cls-32{fill:url(#shard-linear-gradient-30);}.shard-cls-33{fill:url(#shard-linear-gradient-31);}.shard-cls-34{fill:url(#shard-linear-gradient-32);}.shard-cls-35{fill:url(#shard-linear-gradient-33);}.shard-cls-36{fill:url(#shard-linear-gradient-34);}.shard-cls-37{fill:url(#shard-linear-gradient-35);}.shard-cls-38{fill:url(#shard-linear-gradient-36);}.shard-cls-39{fill:url(#shard-linear-gradient-37);}.shard-cls-40{fill:url(#shard-linear-gradient-38);}.shard-cls-41{fill:url(#shard-linear-gradient-39);}.shard-cls-42{fill:url(#shard-linear-gradient-40);}.shard-cls-43{fill:url(#shard-linear-gradient-41);}.shard-cls-44{fill:url(#shard-linear-gradient-42);}.shard-cls-45{fill:url(#shard-linear-gradient-43);}.shard-cls-46{fill:url(#shard-linear-gradient-44);}.shard-cls-47{fill:url(#shard-linear-gradient-45);}.shard-cls-48{fill:url(#shard-linear-gradient-46);}.shard-cls-49{fill:url(#shard-linear-gradient-47);}.shard-cls-50{fill:url(#shard-linear-gradient-48);}.shard-cls-51{fill:url(#shard-linear-gradient-49);}.shard-cls-52{fill:url(#shard-linear-gradient-50);}.shard-cls-53{fill:url(#shard-linear-gradient-51);}.shard-cls-54{fill:url(#shard-linear-gradient-52);}.shard-cls-55{fill:url(#shard-linear-gradient-53);}.shard-cls-56{fill:url(#shard-linear-gradient-54);}.shard-cls-57{fill:url(#shard-linear-gradient-55);}.shard-cls-58{fill:url(#shard-linear-gradient-56);}.shard-cls-59{fill:url(#shard-linear-gradient-57);}.shard-cls-60{fill:url(#shard-linear-gradient-58);}.shard-cls-61{fill:url(#shard-linear-gradient-59);}.shard-cls-62{fill:url(#shard-linear-gradient-60);}.shard-cls-63{fill:url(#shard-linear-gradient-61);}.shard-cls-64{fill:url(#shard-linear-gradient-62);}.shard-cls-65{fill:url(#shard-linear-gradient-63);}.shard-cls-66{fill:url(#shard-linear-gradient-64);}.shard-cls-67{fill:url(#shard-linear-gradient-65);}.shard-cls-68{fill:url(#shard-linear-gradient-66);}.shard-cls-69{fill:url(#shard-linear-gradient-67);}.shard-cls-70{fill:url(#shard-linear-gradient-68);}.shard-cls-71{fill:url(#shard-linear-gradient-69);}.shard-cls-72{fill:url(#shard-linear-gradient-70);}.shard-cls-73{fill:url(#shard-linear-gradient-71);}.shard-cls-74{fill:url(#shard-linear-gradient-72);}.shard-cls-75{fill:url(#shard-linear-gradient-73);}.shard-cls-76{fill:url(#shard-linear-gradient-74);}.shard-cls-77{fill:url(#shard-linear-gradient-75);}.shard-cls-78{fill:url(#shard-linear-gradient-76);}.shard-cls-79{fill:url(#shard-linear-gradient-77);}.shard-cls-80{fill:url(#shard-linear-gradient-78);}.shard-cls-81{fill:url(#shard-linear-gradient-79);}.shard-cls-82{fill:url(#shard-linear-gradient-80);}.shard-cls-83{fill:url(#shard-linear-gradient-81);}.shard-cls-84{fill:url(#shard-linear-gradient-82);}.shard-cls-85{fill:url(#shard-linear-gradient-83);}.shard-cls-86{fill:url(#shard-linear-gradient-84);}.shard-cls-87{fill:url(#shard-linear-gradient-85);}.shard-cls-88{fill:url(#shard-linear-gradient-86);}.shard-cls-89{fill:url(#shard-linear-gradient-87);}.shard-cls-90{fill:url(#shard-linear-gradient-88);}.shard-cls-91{fill:url(#shard-linear-gradient-89);}.shard-cls-92{fill:url(#shard-linear-gradient-90);}.shard-cls-93{fill:url(#shard-linear-gradient-91);}.shard-cls-94{fill:url(#shard-linear-gradient-92);}
		</style>
		<linearGradient id="shard-linear-gradient" x1="223.37" y1="160.63" x2="181.92" y2="160.63" gradientUnits="userSpaceOnUse">
			<stop offset="0" stop-color="#2d96d2" />
			<stop offset="1" stop-color="#2057a1" />
		</linearGradient>
		<linearGradient id="shard-linear-gradient-2" x1="144.32" y1="122.9" x2="181.92" y2="122.9" xlink:href="#shard-linear-gradient" />
		<linearGradient id="shard-linear-gradient-3" x1="153.27" y1="64.75" x2="156.9" y2="64.75" gradientUnits="userSpaceOnUse">
			<stop offset="0.07" stop-color="#c914bc" />
			<stop offset="0.59" stop-color="#911ac4" />
			<stop offset="0.99" stop-color="#731ac4" />
		</linearGradient>
		<linearGradient id="shard-linear-gradient-4" x1="166.75" y1="156.76" x2="172.74" y2="156.76" xlink:href="#shard-linear-gradient-3" />
		<linearGradient id="shard-linear-gradient-5" x1="188.69" y1="184.02" x2="192.53" y2="184.02" xlink:href="#shard-linear-gradient-3" />
		<linearGradient id="shard-linear-gradient-6" x1="195.42" y1="174.06" x2="208.01" y2="174.06" xlink:href="#shard-linear-gradient-3" />
		<linearGradient id="shard-linear-gradient-7" x1="221.23" y1="732.24" x2="360.92" y2="732.24" xlink:href="#shard-linear-gradient" />
		<linearGradient id="shard-linear-gradient-8" x1="-45.73" y1="624.59" x2="452.1" y2="912.01" xlink:href="#shard-linear-gradient" />
		<linearGradient id="shard-linear-gradient-9" x1="170.86" y1="239.37" x2="177.94" y2="243.46" xlink:href="#shard-linear-gradient" />
		<linearGradient id="shard-linear-gradient-10" x1="170.76" y1="1262.08" x2="242.26" y2="1262.08" xlink:href="#shard-linear-gradient-3" />
		<linearGradient id="shard-linear-gradient-11" x1="170.96" y1="1245.72" x2="241.52" y2="1245.72" xlink:href="#shard-linear-gradient-3" />
		<linearGradient id="shard-linear-gradient-12" x1="170.96" y1="1230.5" x2="240.65" y2="1230.5" xlink:href="#shard-linear-gradient-3" />
		<linearGradient id="shard-linear-gradient-13" x1="170.89" y1="1216.14" x2="239.83" y2="1216.14" xlink:href="#shard-linear-gradient-3" />
		<linearGradient id="shard-linear-gradient-14" x1="170.87" y1="1200.62" x2="238.79" y2="1200.62" xlink:href="#shard-linear-gradient-3" />
		<linearGradient id="shard-linear-gradient-15" x1="170.89" y1="1184.75" x2="237.98" y2="1184.75" xlink:href="#shard-linear-gradient-3" />
		<linearGradient id="shard-linear-gradient-16" x1="170.83" y1="1167.75" x2="237.04" y2="1167.75" xlink:href="#shard-linear-gradient-3" />
		<linearGradient id="shard-linear-gradient-17" x1="170.89" y1="1149.25" x2="235.98" y2="1149.25" xlink:href="#shard-linear-gradient-3" />
		<linearGradient id="shard-linear-gradient-18" x1="170.78" y1="1132" x2="234.9" y2="1132" xlink:href="#shard-linear-gradient-3" />
		<linearGradient id="shard-linear-gradient-19" x1="170.96" y1="1115.25" x2="234.03" y2="1115.25" xlink:href="#shard-linear-gradient-3" />
		<linearGradient id="shard-linear-gradient-20" x1="170.78" y1="1098.12" x2="233" y2="1098.12" xlink:href="#shard-linear-gradient-3" />
		<linearGradient id="shard-linear-gradient-21" x1="170.96" y1="1080.75" x2="232" y2="1080.75" xlink:href="#shard-linear-gradient-3" />
		<linearGradient id="shard-linear-gradient-22" x1="170.96" y1="1064" x2="231.1" y2="1064" xlink:href="#shard-linear-gradient-3" />
		<linearGradient id="shard-linear-gradient-23" x1="170.68" y1="1047.37" x2="230.18" y2="1047.37" xlink:href="#shard-linear-gradient-3" />
		<linearGradient id="shard-linear-gradient-24" x1="170.66" y1="1032.12" x2="229.22" y2="1032.12" xlink:href="#shard-linear-gradient-3" />
		<linearGradient id="shard-linear-gradient-25" x1="170.65" y1="1017.87" x2="228.37" y2="1017.87" xlink:href="#shard-linear-gradient-3" />
		<linearGradient id="shard-linear-gradient-26" x1="170.63" y1="999.37" x2="227.39" y2="999.37" xlink:href="#shard-linear-gradient-3" />
		<linearGradient id="shard-linear-gradient-27" x1="170.61" y1="983.25" x2="226.4" y2="983.25" xlink:href="#shard-linear-gradient-3" />
		<linearGradient id="shard-linear-gradient-28" x1="170.96" y1="964.5" x2="225.45" y2="964.5" xlink:href="#shard-linear-gradient-3" />
		<linearGradient id="shard-linear-gradient-29" x1="170.68" y1="945.75" x2="224.19" y2="945.75" xlink:href="#shard-linear-gradient-3" />
		<linearGradient id="shard-linear-gradient-30" x1="170.96" y1="927" x2="223.24" y2="927" xlink:href="#shard-linear-gradient-3" />
		<linearGradient id="shard-linear-gradient-31" x1="170.52" y1="909.25" x2="222.22" y2="909.25" xlink:href="#shard-linear-gradient-3" />
		<linearGradient id="shard-linear-gradient-32" x1="170.49" y1="889.25" x2="221.05" y2="889.25" xlink:href="#shard-linear-gradient-3" />
		<linearGradient id="shard-linear-gradient-33" x1="170.52" y1="870.27" x2="220" y2="870.27" xlink:href="#shard-linear-gradient-3" />
		<linearGradient id="shard-linear-gradient-34" x1="170.52" y1="851.5" x2="218.88" y2="851.5" xlink:href="#shard-linear-gradient-3" />
		<linearGradient id="shard-linear-gradient-35" x1="170.52" y1="833" x2="217.84" y2="833" xlink:href="#shard-linear-gradient-3" />
		<linearGradient id="shard-linear-gradient-36" x1="170.96" y1="816.25" x2="216.96" y2="816.25" xlink:href="#shard-linear-gradient-3" />
		<linearGradient id="shard-linear-gradient-37" x1="170.39" y1="799.58" x2="215.93" y2="799.58" xlink:href="#shard-linear-gradient-3" />
		<linearGradient id="shard-linear-gradient-38" x1="169.74" y1="784.25" x2="215.06" y2="784.25" xlink:href="#shard-linear-gradient-3" />
		<linearGradient id="shard-linear-gradient-39" x1="169.74" y1="764.58" x2="213.93" y2="764.58" xlink:href="#shard-linear-gradient-3" />
		<linearGradient id="shard-linear-gradient-40" x1="169.74" y1="746.92" x2="213.93" y2="746.92" xlink:href="#shard-linear-gradient-3" />
		<linearGradient id="shard-linear-gradient-41" x1="169.74" y1="731.47" x2="212.03" y2="731.47" xlink:href="#shard-linear-gradient-3" />
		<linearGradient id="shard-linear-gradient-42" x1="170.52" y1="714.25" x2="211.02" y2="714.25" xlink:href="#shard-linear-gradient-3" />
		<linearGradient id="shard-linear-gradient-43" x1="170.26" y1="694.58" x2="209.84" y2="694.58" xlink:href="#shard-linear-gradient-3" />
		<linearGradient id="shard-linear-gradient-44" x1="170.52" y1="677.25" x2="208.9" y2="677.25" xlink:href="#shard-linear-gradient-3" />
		<linearGradient id="shard-linear-gradient-45" x1="170.22" y1="658.92" x2="208.01" y2="658.92" xlink:href="#shard-linear-gradient-3" />
		<linearGradient id="shard-linear-gradient-46" x1="170.52" y1="638.25" x2="206.78" y2="638.25" xlink:href="#shard-linear-gradient-3" />
		<linearGradient id="shard-linear-gradient-47" x1="170.52" y1="617.92" x2="205.48" y2="617.92" xlink:href="#shard-linear-gradient-3" />
		<linearGradient id="shard-linear-gradient-48" x1="170.26" y1="600.25" x2="204.44" y2="600.25" xlink:href="#shard-linear-gradient-3" />
		<linearGradient id="shard-linear-gradient-49" x1="170.52" y1="585.92" x2="203.64" y2="585.92" xlink:href="#shard-linear-gradient-3" />
		<linearGradient id="shard-linear-gradient-50" x1="170.11" y1="570.25" x2="202.78" y2="570.25" xlink:href="#shard-linear-gradient-3" />
		<linearGradient id="shard-linear-gradient-51" x1="170.09" y1="554.25" x2="201.83" y2="554.25" xlink:href="#shard-linear-gradient-3" />
		<linearGradient id="shard-linear-gradient-52" x1="170.07" y1="535.92" x2="200.81" y2="535.92" xlink:href="#shard-linear-gradient-3" />
		<linearGradient id="shard-linear-gradient-53" x1="170.26" y1="522.25" x2="200.01" y2="522.25" xlink:href="#shard-linear-gradient-3" />
		<linearGradient id="shard-linear-gradient-54" x1="169.74" y1="505.25" x2="199.04" y2="505.25" xlink:href="#shard-linear-gradient-3" />
		<linearGradient id="shard-linear-gradient-55" x1="170.26" y1="487.58" x2="198.28" y2="487.58" xlink:href="#shard-linear-gradient-3" />
		<linearGradient id="shard-linear-gradient-56" x1="169.74" y1="471.25" x2="197.12" y2="471.25" xlink:href="#shard-linear-gradient-3" />
		<linearGradient id="shard-linear-gradient-57" x1="170.07" y1="454.92" x2="196.39" y2="454.92" xlink:href="#shard-linear-gradient-3" />
		<linearGradient id="shard-linear-gradient-58" x1="169.74" y1="429.75" x2="194.75" y2="429.75" xlink:href="#shard-linear-gradient-3" />
		<linearGradient id="shard-linear-gradient-59" x1="169.74" y1="440.75" x2="194.75" y2="440.75" xlink:href="#shard-linear-gradient-3" />
		<linearGradient id="shard-linear-gradient-60" x1="169.74" y1="413.75" x2="193.69" y2="413.75" xlink:href="#shard-linear-gradient-3" />
		<linearGradient id="shard-linear-gradient-61" x1="169.74" y1="397.75" x2="192.94" y2="397.75" xlink:href="#shard-linear-gradient-3" />
		<linearGradient id="shard-linear-gradient-62" x1="169.74" y1="382.25" x2="192" y2="382.25" xlink:href="#shard-linear-gradient-3" />
		<linearGradient id="shard-linear-gradient-63" x1="360.89" y1="1190.55" x2="324.57" y2="1211.77" xlink:href="#shard-linear-gradient-3" />
		<linearGradient id="shard-linear-gradient-64" x1="358.58" y1="1174.86" x2="324.22" y2="1194.94" xlink:href="#shard-linear-gradient-3" />
		<linearGradient id="shard-linear-gradient-65" x1="354.07" y1="1143.88" x2="319.71" y2="1163.95" xlink:href="#shard-linear-gradient-3" />
		<linearGradient id="shard-linear-gradient-66" x1="351.9" y1="1129.16" x2="317.54" y2="1149.23" xlink:href="#shard-linear-gradient-3" />
		<linearGradient id="shard-linear-gradient-67" x1="349.99" y1="1114.49" x2="315.64" y2="1134.57" xlink:href="#shard-linear-gradient-3" />
		<linearGradient id="shard-linear-gradient-68" x1="347.94" y1="1100.67" x2="313.58" y2="1120.74" xlink:href="#shard-linear-gradient-3" />
		<linearGradient id="shard-linear-gradient-69" x1="345.57" y1="1086.3" x2="311.21" y2="1106.38" xlink:href="#shard-linear-gradient-3" />
		<linearGradient id="shard-linear-gradient-70" x1="343.37" y1="1070.1" x2="309.01" y2="1090.18" xlink:href="#shard-linear-gradient-3" />
		<linearGradient id="shard-linear-gradient-71" x1="341.2" y1="1054.5" x2="306.84" y2="1074.57" xlink:href="#shard-linear-gradient-3" />
		<linearGradient id="shard-linear-gradient-72" x1="339.01" y1="1039.53" x2="304.65" y2="1059.61" xlink:href="#shard-linear-gradient-3" />
		<linearGradient id="shard-linear-gradient-73" x1="336.63" y1="1022.69" x2="302.27" y2="1042.77" xlink:href="#shard-linear-gradient-3" />
		<linearGradient id="shard-linear-gradient-74" x1="333.94" y1="1004.42" x2="299.58" y2="1024.5" xlink:href="#shard-linear-gradient-3" />
		<linearGradient id="shard-linear-gradient-75" x1="331.44" y1="986.16" x2="297.08" y2="1006.23" xlink:href="#shard-linear-gradient-3" />
		<linearGradient id="shard-linear-gradient-76" x1="329.15" y1="969.31" x2="294.79" y2="989.39" xlink:href="#shard-linear-gradient-3" />
		<linearGradient id="shard-linear-gradient-77" x1="326.59" y1="949.55" x2="292.23" y2="969.63" xlink:href="#shard-linear-gradient-3" />
		<linearGradient id="shard-linear-gradient-78" x1="356.04" y1="1158.76" x2="324.07" y2="1177.44" xlink:href="#shard-linear-gradient-3" />
		<linearGradient id="shard-linear-gradient-79" x1="0.8" y1="1145.22" x2="38.38" y2="1145.22" xlink:href="#shard-linear-gradient-3" />
		<linearGradient id="shard-linear-gradient-80" x1="2.87" y1="1128.56" x2="40.45" y2="1128.56" xlink:href="#shard-linear-gradient-3" />
		<linearGradient id="shard-linear-gradient-81" x1="5.65" y1="1111.31" x2="43.22" y2="1111.31" xlink:href="#shard-linear-gradient-3" />
		<linearGradient id="shard-linear-gradient-82" x1="7.68" y1="1094.56" x2="45.26" y2="1094.56" xlink:href="#shard-linear-gradient-3" />
		<linearGradient id="shard-linear-gradient-83" x1="9.76" y1="1079.08" x2="47.33" y2="1079.08" xlink:href="#shard-linear-gradient-3" />
		<linearGradient id="shard-linear-gradient-84" x1="12.26" y1="1061.08" x2="49.83" y2="1061.08" xlink:href="#shard-linear-gradient-3" />
		<linearGradient id="shard-linear-gradient-85" x1="14.69" y1="1043.31" x2="52.26" y2="1043.31" xlink:href="#shard-linear-gradient-3" />
		<linearGradient id="shard-linear-gradient-86" x1="16.54" y1="1026.68" x2="54.12" y2="1026.68" xlink:href="#shard-linear-gradient-3" />
		<linearGradient id="shard-linear-gradient-87" x1="18.81" y1="1011.43" x2="56.38" y2="1011.43" xlink:href="#shard-linear-gradient-3" />
		<linearGradient id="shard-linear-gradient-88" x1="20.82" y1="995.28" x2="58.4" y2="995.28" xlink:href="#shard-linear-gradient-3" />
		<linearGradient id="shard-linear-gradient-89" x1="23.49" y1="978.68" x2="61.06" y2="978.68" xlink:href="#shard-linear-gradient-3" />
		<linearGradient id="shard-linear-gradient-90" x1="24.97" y1="962.56" x2="62.55" y2="962.56" xlink:href="#shard-linear-gradient-3" />
		<linearGradient id="shard-linear-gradient-91" x1="26.75" y1="947.69" x2="64.33" y2="947.69" xlink:href="#shard-linear-gradient-3" />
		<linearGradient id="shard-linear-gradient-92" x1="165.78" y1="684.59" x2="36.88" y2="684.59" xlink:href="#shard-linear-gradient" />
	</defs>
	<g>
		<g>
			<polyline class="shard-cls-1" points="181.92 188.87 200.45 204.56 217.78 219.25 221.23 244.25 223.37 245.34 200.45 75.92 181.92 188.87" />
			<polygon class="shard-cls-2" points="200.45 75.92 202.66 73.7 225.41 246.38 223.37 245.34 200.45 75.92" />
			<polygon class="shard-cls-3" points="177.53 227.82 171.24 243.07 171.21 118.95 148.03 83.83 144.32 86.76 147.2 2.72 176.58 88.7 181.92 188.87 175.53 183.75 177.53 227.82" />
			<polygon class="shard-cls-2" points="147.2 2.72 151.28 0 180.9 85.25 176.58 88.7 147.2 2.72" />
			<path class="shard-cls-4" d="M154.77,95.54h0A1.5,1.5,0,0,1,153.27,94l.62-58.59a1.5,1.5,0,0,1,3,0l-.62,58.59A1.5,1.5,0,0,1,154.77,95.54Z" />
			<path class="shard-cls-5" d="M171.24,244.57a1.5,1.5,0,0,1-1.5-1.47l-3-172.63a1.5,1.5,0,1,1,3-.05l3,172.63a1.5,1.5,0,0,1-1.47,1.53Z" />
			<path class="shard-cls-6" d="M191,209a1.5,1.5,0,0,1-1.5-1.47l-.83-47a1.5,1.5,0,0,1,1.47-1.53,1.52,1.52,0,0,1,1.53,1.47l.83,47a1.5,1.5,0,0,1-1.47,1.53Z" />
			<path class="shard-cls-7" d="M206.51,231.77A1.5,1.5,0,0,1,205,230.4L195.43,118a1.5,1.5,0,1,1,3-.25L208,230.15a1.5,1.5,0,0,1-1.37,1.62Z" />
			<polyline class="shard-cls-8" points="318.81 950.56 221.23 244.25 225.41 246.38 360.92 1200 326 1220.23 318.81 950.56" />
			<polygon class="shard-cls-2" points="141.87 88.7 148.03 83.83 171.21 118.95 165.78 124.7 141.87 88.7" />
			<polygon class="shard-cls-2" points="165.78 124.7 171.21 118.95 172.46 1276.31 165.78 1280.48 165.78 124.7" />
			<polygon class="shard-cls-9" points="172.46 1276.31 241.78 1276.31 181.92 230.28 171.24 255.07 172.46 1276.31" />
			<polygon class="shard-cls-10" points="181.92 230.28 177.53 227.82 171.24 243.07 171.24 255.07 181.92 230.28" />
			<polygon class="shard-cls-11" points="36.88 1187.05 0 1142 119.45 235.25 123.74 236.37 36.88 943.66 36.88 1187.05" />
			<polygon class="shard-cls-11" points="179.28 186.63 175.53 183.75 177.53 227.82 181.92 230.28 179.28 186.63" />
			<polygon class="shard-cls-2" points="176.58 88.7 180.9 85.25 184.64 172.27 181.92 188.87 176.58 88.7" />
			<path class="shard-cls-12" d="M240.76,1263.58h-68.5a1.5,1.5,0,1,1,0-3h68.5a1.5,1.5,0,1,1,0,3Z" />
			<path class="shard-cls-13" d="M240,1247.22H172.46a1.5,1.5,0,0,1,0-3H240a1.5,1.5,0,0,1,0,3Z" />
			<path class="shard-cls-14" d="M239.15,1232H172.46a1.5,1.5,0,0,1,0-3h66.69a1.5,1.5,0,1,1,0,3Z" />
			<path class="shard-cls-15" d="M238.33,1217.64H172.39a1.5,1.5,0,0,1,0-3h65.94a1.5,1.5,0,0,1,0,3Z" />
			<path class="shard-cls-16" d="M237.29,1202.12H172.37a1.5,1.5,0,0,1,0-3h64.93a1.5,1.5,0,0,1,0,3Z" />
			<path class="shard-cls-17" d="M236.48,1186.25h-64.1a1.5,1.5,0,0,1,0-3h64.1a1.5,1.5,0,0,1,0,3Z" />
			<path class="shard-cls-18" d="M235.54,1169.25H172.33a1.5,1.5,0,0,1,0-3h63.22a1.5,1.5,0,0,1,0,3Z" />
			<path class="shard-cls-19" d="M234.48,1150.75H172.39a1.5,1.5,0,0,1,0-3h62.09a1.5,1.5,0,0,1,0,3Z" />
			<path class="shard-cls-20" d="M233.4,1133.5H172.28a1.5,1.5,0,1,1,0-3H233.4a1.5,1.5,0,0,1,0,3Z" />
			<path class="shard-cls-21" d="M232.53,1116.75H172.46a1.5,1.5,0,0,1,0-3h60.08a1.5,1.5,0,1,1,0,3Z" />
			<path class="shard-cls-22" d="M231.5,1099.62H172.28a1.5,1.5,0,1,1,0-3H231.5a1.5,1.5,0,0,1,0,3Z" />
			<path class="shard-cls-23" d="M230.5,1082.25h-58a1.5,1.5,0,0,1,0-3h58a1.5,1.5,0,1,1,0,3Z" />
			<path class="shard-cls-24" d="M229.6,1065.5H172.46a1.5,1.5,0,0,1,0-3H229.6a1.5,1.5,0,0,1,0,3Z" />
			<path class="shard-cls-25" d="M228.68,1048.87h-56.5a1.5,1.5,0,1,1,0-3h56.5a1.5,1.5,0,0,1,0,3Z" />
			<path class="shard-cls-26" d="M227.72,1033.62H172.16a1.5,1.5,0,0,1,0-3h55.56a1.5,1.5,0,1,1,0,3Z" />
			<path class="shard-cls-27" d="M226.87,1019.37H172.15a1.5,1.5,0,1,1,0-3h54.72a1.5,1.5,0,0,1,0,3Z" />
			<path class="shard-cls-28" d="M225.89,1000.87H172.13a1.5,1.5,0,1,1,0-3h53.76a1.5,1.5,0,1,1,0,3Z" />
			<path class="shard-cls-29" d="M224.9,984.75H172.11a1.5,1.5,0,1,1,0-3H224.9a1.5,1.5,0,1,1,0,3Z" />
			<path class="shard-cls-30" d="M224,966H172.46a1.5,1.5,0,1,1,0-3H224a1.5,1.5,0,0,1,0,3Z" />
			<path class="shard-cls-31" d="M222.69,947.25h-50.5a1.5,1.5,0,0,1,0-3h50.5a1.5,1.5,0,1,1,0,3Z" />
			<path class="shard-cls-32" d="M221.74,928.5H172.46a1.5,1.5,0,1,1,0-3h49.29a1.5,1.5,0,1,1,0,3Z" />
			<path class="shard-cls-33" d="M220.72,910.75H172a1.5,1.5,0,0,1,0-3h48.71a1.5,1.5,0,0,1,0,3Z" />
			<path class="shard-cls-34" d="M219.55,890.75H172a1.5,1.5,0,1,1,0-3h47.55a1.5,1.5,0,0,1,0,3Z" />
			<path class="shard-cls-35" d="M218.5,871.77H172a1.5,1.5,0,1,1,0-3H218.5a1.5,1.5,0,0,1,0,3Z" />
			<path class="shard-cls-36" d="M217.38,853H172a1.5,1.5,0,0,1,0-3h45.36a1.5,1.5,0,1,1,0,3Z" />
			<path class="shard-cls-37" d="M216.34,834.5H172a1.5,1.5,0,0,1,0-3h44.32a1.5,1.5,0,0,1,0,3Z" />
			<path class="shard-cls-38" d="M215.46,817.75h-43a1.5,1.5,0,1,1,0-3h43a1.5,1.5,0,1,1,0,3Z" />
			<path class="shard-cls-39" d="M214.43,801.08H171.89a1.5,1.5,0,1,1,0-3h42.55a1.5,1.5,0,0,1,0,3Z" />
			<path class="shard-cls-40" d="M213.56,785.75H171.24a1.5,1.5,0,1,1,0-3h42.32a1.5,1.5,0,1,1,0,3Z" />
			<path class="shard-cls-41" d="M212.43,766.08H171.24a1.5,1.5,0,1,1,0-3h41.19a1.5,1.5,0,1,1,0,3Z" />
			<path class="shard-cls-42" d="M212.43,748.42H171.24a1.5,1.5,0,1,1,0-3h41.19a1.5,1.5,0,1,1,0,3Z" />
			<path class="shard-cls-43" d="M210.53,733H171.24a1.5,1.5,0,1,1,0-3h39.29a1.5,1.5,0,0,1,0,3Z" />
			<path class="shard-cls-44" d="M209.52,715.75H172a1.5,1.5,0,0,1,0-3h37.5a1.5,1.5,0,1,1,0,3Z" />
			<path class="shard-cls-45" d="M208.34,696.08H171.76a1.5,1.5,0,0,1,0-3h36.58a1.5,1.5,0,0,1,0,3Z" />
			<path class="shard-cls-46" d="M207.4,678.75H172a1.5,1.5,0,0,1,0-3H207.4a1.5,1.5,0,0,1,0,3Z" />
			<path class="shard-cls-47" d="M206.51,660.42H171.72a1.5,1.5,0,0,1,0-3h34.79a1.5,1.5,0,0,1,0,3Z" />
			<path class="shard-cls-48" d="M205.28,639.75H172a1.5,1.5,0,0,1,0-3h33.26a1.5,1.5,0,0,1,0,3Z" />
			<path class="shard-cls-49" d="M204,619.42H172a1.5,1.5,0,0,1,0-3h32a1.5,1.5,0,1,1,0,3Z" />
			<path class="shard-cls-50" d="M202.94,601.75H171.76a1.5,1.5,0,0,1,0-3h31.18a1.5,1.5,0,1,1,0,3Z" />
			<path class="shard-cls-51" d="M202.14,587.42H172a1.5,1.5,0,0,1,0-3h30.12a1.5,1.5,0,1,1,0,3Z" />
			<path class="shard-cls-52" d="M201.28,571.75H171.61a1.5,1.5,0,0,1,0-3h29.67a1.5,1.5,0,0,1,0,3Z" />
			<path class="shard-cls-53" d="M200.33,555.75H171.59a1.5,1.5,0,0,1,0-3h28.73a1.5,1.5,0,1,1,0,3Z" />
			<path class="shard-cls-54" d="M199.31,537.42H171.57a1.5,1.5,0,0,1,0-3h27.74a1.5,1.5,0,1,1,0,3Z" />
			<path class="shard-cls-55" d="M198.51,523.75H171.76a1.5,1.5,0,0,1,0-3h26.75a1.5,1.5,0,0,1,0,3Z" />
			<path class="shard-cls-56" d="M197.54,506.75h-26.3a1.5,1.5,0,1,1,0-3h26.3a1.5,1.5,0,0,1,0,3Z" />
			<path class="shard-cls-57" d="M196.78,489.08h-25a1.5,1.5,0,0,1,0-3h25a1.5,1.5,0,0,1,0,3Z" />
			<path class="shard-cls-58" d="M195.62,472.75H171.24a1.5,1.5,0,1,1,0-3h24.39a1.5,1.5,0,1,1,0,3Z" />
			<path class="shard-cls-59" d="M194.89,456.42H171.57a1.5,1.5,0,0,1,0-3h23.32a1.5,1.5,0,1,1,0,3Z" />
			<path class="shard-cls-60" d="M193.25,431.25h-22a1.5,1.5,0,1,1,0-3h22a1.5,1.5,0,0,1,0,3Z" />
			<path class="shard-cls-61" d="M193.25,442.25h-22a1.5,1.5,0,1,1,0-3h22a1.5,1.5,0,0,1,0,3Z" />
			<path class="shard-cls-62" d="M192.19,415.25h-21a1.5,1.5,0,1,1,0-3h21a1.5,1.5,0,0,1,0,3Z" />
			<path class="shard-cls-63" d="M191.44,399.25H171.24a1.5,1.5,0,1,1,0-3h20.21a1.5,1.5,0,0,1,0,3Z" />
			<path class="shard-cls-64" d="M190.5,383.75H171.24a1.5,1.5,0,1,1,0-3H190.5a1.5,1.5,0,1,1,0,3Z" />
			<path class="shard-cls-65" d="M325.74,1212.31a1.5,1.5,0,0,1-.74-2.8l34-19.3a1.5,1.5,0,0,1,1.48,2.61l-34,19.3A1.49,1.49,0,0,1,325.74,1212.31Z" />
			<path class="shard-cls-66" d="M325.29,1195.3a1.5,1.5,0,0,1-.73-2.81l32.22-17.79a1.5,1.5,0,0,1,1.45,2.63L326,1195.11A1.5,1.5,0,0,1,325.29,1195.3Z" />
			<path class="shard-cls-67" d="M320.78,1164.31a1.5,1.5,0,0,1-.73-2.81l32.22-17.79a1.5,1.5,0,0,1,1.45,2.63l-32.22,17.79A1.5,1.5,0,0,1,320.78,1164.31Z" />
			<path class="shard-cls-68" d="M318.61,1149.59a1.5,1.5,0,0,1-.73-2.81L350.1,1129a1.5,1.5,0,1,1,1.45,2.63l-32.22,17.79A1.5,1.5,0,0,1,318.61,1149.59Z" />
			<path class="shard-cls-69" d="M316.71,1134.93a1.5,1.5,0,0,1-.73-2.81l32.22-17.79a1.5,1.5,0,1,1,1.45,2.63l-32.22,17.79A1.5,1.5,0,0,1,316.71,1134.93Z" />
			<path class="shard-cls-70" d="M314.66,1121.1a1.5,1.5,0,0,1-.73-2.81l32.22-17.79a1.5,1.5,0,0,1,1.45,2.63l-32.22,17.79A1.5,1.5,0,0,1,314.66,1121.1Z" />
			<path class="shard-cls-71" d="M312.29,1106.74a1.5,1.5,0,0,1-.73-2.81l32.22-17.79a1.5,1.5,0,0,1,1.45,2.63L313,1106.55A1.5,1.5,0,0,1,312.29,1106.74Z" />
			<path class="shard-cls-72" d="M310.08,1090.54a1.5,1.5,0,0,1-.73-2.81l32.22-17.79a1.5,1.5,0,0,1,1.45,2.63l-32.22,17.79A1.5,1.5,0,0,1,310.08,1090.54Z" />
			<path class="shard-cls-73" d="M307.91,1074.93a1.5,1.5,0,0,1-.73-2.81l32.22-17.79a1.5,1.5,0,0,1,1.45,2.63l-32.22,17.79A1.5,1.5,0,0,1,307.91,1074.93Z" />
			<path class="shard-cls-74" d="M305.72,1060a1.5,1.5,0,0,1-.73-2.81l32.22-17.79a1.5,1.5,0,0,1,1.45,2.63l-32.22,17.79A1.5,1.5,0,0,1,305.72,1060Z" />
			<path class="shard-cls-75" d="M303.34,1043.13a1.5,1.5,0,0,1-.73-2.81l32.22-17.79a1.5,1.5,0,1,1,1.45,2.63l-32.22,17.79A1.49,1.49,0,0,1,303.34,1043.13Z" />
			<path class="shard-cls-76" d="M300.65,1024.86a1.5,1.5,0,0,1-.73-2.81l32.22-17.79a1.5,1.5,0,0,1,1.45,2.63l-32.22,17.79A1.49,1.49,0,0,1,300.65,1024.86Z" />
			<path class="shard-cls-77" d="M298.15,1006.59a1.5,1.5,0,0,1-.73-2.81L329.64,986a1.5,1.5,0,0,1,1.45,2.63l-32.22,17.79A1.49,1.49,0,0,1,298.15,1006.59Z" />
			<path class="shard-cls-78" d="M295.86,989.75a1.5,1.5,0,0,1-.73-2.81l32.22-17.79a1.5,1.5,0,0,1,1.45,2.63l-32.22,17.79A1.5,1.5,0,0,1,295.86,989.75Z" />
			<path class="shard-cls-79" d="M293.3,970a1.5,1.5,0,0,1-.73-2.81l32.22-17.79a1.5,1.5,0,1,1,1.45,2.63L294,969.8A1.5,1.5,0,0,1,293.3,970Z" />
			<path class="shard-cls-80" d="M324.81,1177.24a1.5,1.5,0,0,1-.67-2.84l30.49-15.28a1.5,1.5,0,1,1,1.34,2.68l-30.49,15.28A1.49,1.49,0,0,1,324.81,1177.24Z" />
			<polygon class="shard-cls-2" points="241.78 1276.31 326.19 1227.37 318.81 950.56 217.78 219.25 179.28 186.63 241.78 1276.31" />
			<path class="shard-cls-81" d="M36.88,1167.42a1.5,1.5,0,0,1-1.15-.54L1.15,1125.49a1.5,1.5,0,0,1,2.3-1.92L38,1165a1.5,1.5,0,0,1-1.15,2.46Z" />
			<path class="shard-cls-82" d="M38.95,1150.75a1.5,1.5,0,0,1-1.15-.54L3.22,1108.82a1.5,1.5,0,0,1,2.3-1.92l34.57,41.39a1.5,1.5,0,0,1-1.15,2.46Z" />
			<path class="shard-cls-83" d="M41.72,1133.5a1.5,1.5,0,0,1-1.15-.54L6,1091.57a1.5,1.5,0,0,1,2.3-1.92L42.87,1131a1.5,1.5,0,0,1-1.15,2.46Z" />
			<path class="shard-cls-84" d="M43.76,1116.75a1.5,1.5,0,0,1-1.15-.54L8,1074.82a1.5,1.5,0,0,1,2.3-1.92l34.57,41.39a1.5,1.5,0,0,1-1.15,2.46Z" />
			<path class="shard-cls-85" d="M45.83,1101.27a1.5,1.5,0,0,1-1.15-.54l-34.57-41.39a1.5,1.5,0,0,1,2.3-1.92L47,1098.81a1.5,1.5,0,0,1-1.15,2.46Z" />
			<path class="shard-cls-86" d="M48.33,1083.27a1.5,1.5,0,0,1-1.15-.54l-34.57-41.39a1.5,1.5,0,0,1,2.3-1.92l34.57,41.39a1.5,1.5,0,0,1-1.15,2.46Z" />
			<path class="shard-cls-87" d="M50.76,1065.5a1.5,1.5,0,0,1-1.15-.54L15,1023.57a1.5,1.5,0,0,1,2.3-1.92L51.91,1063a1.5,1.5,0,0,1-1.15,2.46Z" />
			<path class="shard-cls-88" d="M52.62,1048.87a1.5,1.5,0,0,1-1.15-.54l-34.57-41.39a1.5,1.5,0,0,1,2.3-1.92l34.57,41.39a1.5,1.5,0,0,1-1.15,2.46Z" />
			<path class="shard-cls-89" d="M54.88,1033.62a1.5,1.5,0,0,1-1.15-.54L19.16,991.7a1.5,1.5,0,0,1,2.3-1.92L56,1031.16a1.5,1.5,0,0,1-1.15,2.46Z" />
			<path class="shard-cls-90" d="M56.9,1017.48a1.5,1.5,0,0,1-1.15-.54L21.17,975.55a1.5,1.5,0,0,1,2.3-1.92L58,1015a1.5,1.5,0,0,1-1.15,2.46Z" />
			<path class="shard-cls-91" d="M59.56,1000.87a1.5,1.5,0,0,1-1.15-.54L23.84,958.95a1.5,1.5,0,0,1,2.3-1.92l34.57,41.39a1.5,1.5,0,0,1-1.15,2.46Z" />
			<path class="shard-cls-92" d="M61,984.75a1.5,1.5,0,0,1-1.15-.54L25.32,942.82a1.5,1.5,0,0,1,2.3-1.92L62.2,982.29A1.5,1.5,0,0,1,61,984.75Z" />
			<path class="shard-cls-93" d="M62.83,969.89a1.5,1.5,0,0,1-1.15-.54L27.1,928a1.5,1.5,0,0,1,2.3-1.92L64,967.43a1.5,1.5,0,0,1-1.15,2.46Z" />
			<polygon class="shard-cls-94" points="36.88 1206.06 165.78 1280.48 165.78 124.7 141.87 88.7 36.88 943.66 36.88 1206.06" />
		</g>
	</g>
</svg>