<svg xmlns="http://www.w3.org/2000/svg" viewBox="0 0 336.41 414.82" width="336" height="415" class="o2__light">
	<defs>
		<style>
			.o2-cls-1,.o2-cls-2{fill:#09d1e3;}.o2-cls-1{opacity:0.3;}
		</style>
	</defs>
	<g>
		<g>
			<path class="o2-cls-1" d="M131.29,2.83l.78,1.56c3.17,10.25-20,37.35-54,62.61s-66.65,39.6-75.54,33.6L1.27,99.4c-6.51-8.77,17.31-37.5,53.22-64.16S124.78-5.94,131.29,2.83Z" />
			<path class="o2-cls-1" d="M131.1,2.56l.78,1.56c3.17,10.25-20,37.35-54,62.61s-66.65,39.6-75.54,33.6l-1.27-1.2C-5.44,90.36,18.38,61.63,54.29,35S124.59-6.21,131.1,2.56Z" />
			<path class="o2-cls-1" d="M131.29,2.83a5.26,5.26,0,0,1,.78,1.56Z" />
			<path class="o2-cls-2" d="M2.54,100.59a5.12,5.12,0,0,1-1.27-1.2Z" />
			<path class="o2-cls-1" d="M132.08,4.38,336.41,414.82,2.54,100.59c8.89,6,41.53-8.35,75.54-33.6S135.25,14.63,132.08,4.38Z" />
		</g>
	</g>
</svg>
