<svg xmlns="http://www.w3.org/2000/svg" xmlns:xlink="http://www.w3.org/1999/xlink" viewBox="0 0 85.86 113.58" width="86" height="114" class="tate__painting">
	<defs>
		<style>
			.tate-painting-cls-1{fill:url(#tate-painting-linear-gradient);}.tate-painting-cls-2,.tate-painting-cls-3{fill:none;stroke-linecap:round;stroke-miterlimit:10;stroke-width:3px;}.tate-painting-cls-2{stroke:url(#tate-painting-linear-gradient-2);}.tate-painting-cls-3{stroke:url(#tate-painting-linear-gradient-3);}.tate-painting-cls-4{fill:url(#tate-painting-linear-gradient-4);}.tate-painting-cls-5{fill:url(#tate-painting-linear-gradient-5);}.tate-painting-cls-6{fill:url(#tate-painting-linear-gradient-6);}
		</style>
		<linearGradient id="tate-painting-linear-gradient" x1="6.22" y1="58.34" x2="85.86" y2="58.34" gradientUnits="userSpaceOnUse">
			<stop offset="0" stop-color="#2d96d2" />
			<stop offset="1" stop-color="#2057a1" />
		</linearGradient>
		<linearGradient id="tate-painting-linear-gradient-2" x1="13.12" y1="59.09" x2="38.92" y2="59.09" gradientUnits="userSpaceOnUse">
			<stop offset="0.07" stop-color="#c914bc" />
			<stop offset="0.59" stop-color="#911ac4" />
			<stop offset="0.99" stop-color="#731ac4" />
		</linearGradient>
		<linearGradient id="tate-painting-linear-gradient-3" x1="45.65" y1="56.79" x2="79.9" y2="56.79" xlink:href="#tate-painting-linear-gradient-2" />
		<linearGradient id="tate-painting-linear-gradient-4" x1="28.42" y1="69.74" x2="51.21" y2="69.74" xlink:href="#tate-painting-linear-gradient-2" />
		<linearGradient id="tate-painting-linear-gradient-5" x1="65.8" y1="31.13" x2="73.79" y2="31.13" xlink:href="#tate-painting-linear-gradient-2" />
		<linearGradient id="tate-painting-linear-gradient-6" y1="56.79" x2="85.86" y2="56.79" gradientUnits="userSpaceOnUse">
			<stop offset="0" stop-color="#64c8c3" />
			<stop offset="1" stop-color="#4296ab" />
		</linearGradient>
	</defs>
	<g>
		<g>
			<polygon class="tate-painting-cls-1" points="6.22 113.57 6.22 49.09 85.86 3.11 85.58 67.75 6.22 113.57" />
			<polygon class="tate-painting-cls-2" points="14.62 74.9 14.62 56.45 37.41 43.29 37.33 61.79 14.62 74.9" />
			<polygon class="tate-painting-cls-3" points="47.15 74.9 47.15 56.45 78.39 38.68 78.31 57.17 47.15 74.9" />
			<polygon class="tate-painting-cls-4" points="28.42 91.55 28.42 61.08 51.22 47.93 51.13 78.44 28.42 91.55" />
			<polygon class="tate-painting-cls-5" points="65.8 38.77 65.8 28.09 73.79 23.48 73.76 34.17 65.8 38.77" />
			<polygon class="tate-painting-cls-6" points="6.21 113.58 0 110.46 0 45.98 79.64 0 85.86 3.12 6.21 49.1 6.21 113.58" />
		</g>
	</g>
</svg>
