<svg xmlns="http://www.w3.org/2000/svg" xmlns:xlink="http://www.w3.org/1999/xlink" viewBox="0 0 129.62 171.46" width="130" height="171" class="tate__painting">
	<defs>
		<style>
			.tate-painting-cls-1{fill:url(#tate-painting-linear-gradient);}.tate-painting-cls-2{fill:url(#tate-painting-linear-gradient-2);}.tate-painting-cls-3{fill:#c914bc;}.tate-painting-cls-4{fill:#09d1e3;}
		</style>
		<linearGradient id="tate-painting-linear-gradient" x1="9.39" y1="88.07" x2="129.62" y2="88.07" gradientUnits="userSpaceOnUse">
			<stop offset="0" stop-color="#2d96d2" />
			<stop offset="1" stop-color="#2057a1" />
		</linearGradient>
		<linearGradient id="tate-painting-linear-gradient-2" y1="85.73" x2="129.61" y2="85.73" gradientUnits="userSpaceOnUse">
			<stop offset="0" stop-color="#64c8c3" />
			<stop offset="1" stop-color="#4296ab" />
		</linearGradient>
	</defs>
	<g>
		<g>
			<polygon class="tate-painting-cls-1" points="9.39 171.45 9.39 74.11 129.62 4.69 129.19 102.28 9.39 171.45" />
			<polygon class="tate-painting-cls-2" points="9.38 171.46 0 166.76 0 69.42 120.23 0 129.61 4.71 9.38 74.12 9.38 171.46" />
			<path class="tate-painting-cls-3" d="M38.78,96.19A74.73,74.73,0,0,0,49.18,94c5.66,9,8.49,13.33,14.15,21.8-3.64,1.35-5.46,2-9.1,3.13-1-1.93-1.5-2.9-2.5-4.85a85.27,85.27,0,0,1-9.1,2.24l-.7,5.74a59.42,59.42,0,0,1-8.79,1.1C35.4,112.47,36.53,107.07,38.78,96.19Zm4.53,14.6c2.4-.49,3.6-.78,6-1.42l-.84-1.6c-1.21-2.2-2.52-5.09-3.75-7.46l-.2,0c-.27,2.74-.56,6-1,8.57Z" />
			<path class="tate-painting-cls-3" d="M62.17,89.83C67.09,88,69.55,87,74.46,85.09c7-2.77,13.31-3.2,14.37,3,.61,3.56-1.09,6.63-4,9.12,3.48,2.78,5.22,4.19,8.7,7.13-3.84,1.27-5.76,2-9.59,3.45-2.81-2.47-4.21-3.68-7-6.11L73.59,103,75,111.27c-3.44,1.36-5.16,2.05-8.59,3.37C64.72,104.73,63.87,99.77,62.17,89.83ZM75.8,96.58c3.4-1.35,5-3.19,4.63-5.32s-2.28-2.11-5.68-.76l-3.1,1.23,1,6.09Z" />
			<path class="tate-painting-cls-3" d="M99.79,81.86c-3.44,1-5.16,1.52-8.59,2.71l-.94-5.52C100.57,75.42,105.73,73.77,116,73l.94,5.79a59.23,59.23,0,0,0-8.6,1.07c1.32,8,2,12,3.31,20a71.19,71.19,0,0,0-8.6,1.68C101.78,93.65,101.12,89.71,99.79,81.86Z" />
			<path class="tate-painting-cls-4" d="M37.72,88.2a54.09,54.09,0,0,0,7.89-5.3c4.55-3.53,9.07-5.86,11.8-1.76s.1,9.45-4.18,13c-.88.73-1.33,1.09-2.23,1.78l3.48,5.27a59.46,59.46,0,0,1-5.61,4.06C44.42,98.46,42.2,95.06,37.72,88.2Zm13,2.67c2.16-1.74,2.57-3.51,1.59-5s-2.51-1-4.62.68c-.74.58-1.11.87-1.87,1.42l2.91,4.42C49.5,91.82,49.89,91.51,50.68,90.87Z" />
			<path class="tate-painting-cls-4" d="M61.5,81.44c-3.55-5.32-1.9-12,3.36-17.66s10.85-6.44,14.39-1.14,2,12.11-3.27,17.78S65,86.76,61.5,81.44ZM74,68.07c-1.95-2.92-4.47-3.09-6.75-.63A6.58,6.58,0,0,0,66.68,76c1.95,2.92,4.57,3.23,6.85.77A6.77,6.77,0,0,0,74,68.07Z" />
			<path class="tate-painting-cls-4" d="M77.37,51.16a96.4,96.4,0,0,1,7.32-6.63c4.48-3.69,9.53-4.79,12.35-.47s-.37,8.34-4.74,11.71c-.9.69-1.34,1-2.23,1.78l3.47,5.25c-2.18,1.76-3.25,2.7-5.35,4.65ZM89.75,52.5c2.17-1.72,2.65-3.31,1.67-4.81s-2.6-1.19-4.69.52c-.73.6-1.1.9-1.82,1.53l2.89,4.37C88.57,53.44,89,53.12,89.75,52.5Z" />
		</g>
	</g>
</svg>
