<svg xmlns="http://www.w3.org/2000/svg" viewBox="0 0 35 35"><defs><style>.cls-1{fill:none;}</style></defs><title>eye</title><g id="Layer_2" data-name="Layer 2"><g id="design"><path d="M17.5,4A1.47,1.47,0,1,0,16,2.57,1.47,1.47,0,0,0,17.5,4Zm0-2.23a.76.76,0,1,1-.76.76A.76.76,0,0,1,17.5,1.81Z"/><path d="M23,5.12A1.47,1.47,0,1,0,21.5,3.65,1.47,1.47,0,0,0,23,5.12Zm0-2.23a.76.76,0,1,1-.76.76A.76.76,0,0,1,23,2.89Z"/><path d="M27.57,5.25A1.47,1.47,0,1,0,29,6.72,1.47,1.47,0,0,0,27.57,5.25Zm0,2.23a.76.76,0,1,1,.76-.76A.76.76,0,0,1,27.57,7.48Z"/><path d="M30.67,12.84a1.47,1.47,0,1,0-1.47-1.47A1.47,1.47,0,0,0,30.67,12.84Zm0-2.23a.76.76,0,1,1-.76.76A.76.76,0,0,1,30.67,10.61Z"/><path d="M31.72,15.32a1.47,1.47,0,1,0,1.47,1.47A1.47,1.47,0,0,0,31.72,15.32Zm0,2.23a.76.76,0,1,1,.76-.76A.76.76,0,0,1,31.72,17.54Z"/><path d="M30.6,20.77a1.47,1.47,0,1,0,1.47,1.47A1.47,1.47,0,0,0,30.6,20.77Zm0,2.23a.76.76,0,1,1,.76-.76A.76.76,0,0,1,30.6,23Z"/><path d="M27.57,25.38A1.47,1.47,0,1,0,29,26.85,1.47,1.47,0,0,0,27.57,25.38Zm0,2.23a.76.76,0,1,1,.76-.76A.76.76,0,0,1,27.57,27.61Z"/><path d="M22.92,28.48A1.47,1.47,0,1,0,24.4,30,1.47,1.47,0,0,0,22.92,28.48Zm0,2.23a.76.76,0,1,1,.76-.76A.76.76,0,0,1,22.92,30.71Z"/><path d="M17.5,29.53A1.47,1.47,0,1,0,19,31,1.47,1.47,0,0,0,17.5,29.53Zm0,2.23a.76.76,0,1,1,.76-.76A.76.76,0,0,1,17.5,31.76Z"/><path d="M12,28.42a1.47,1.47,0,1,0,1.47,1.47A1.47,1.47,0,0,0,12,28.42Zm0,2.23a.76.76,0,1,1,.76-.76A.76.76,0,0,1,12,30.65Z"/><path d="M7.43,25.38a1.47,1.47,0,1,0,1.47,1.47A1.47,1.47,0,0,0,7.43,25.38Zm0,2.23a.76.76,0,1,1,.76-.76A.76.76,0,0,1,7.43,27.61Z"/><path d="M4.33,20.74a1.47,1.47,0,1,0,1.47,1.47A1.47,1.47,0,0,0,4.33,20.74Zm0,2.23a.76.76,0,1,1,.76-.76A.76.76,0,0,1,4.33,23Z"/><path d="M4.75,16.79a1.47,1.47,0,1,0-1.47,1.47A1.47,1.47,0,0,0,4.75,16.79Zm-2.23,0a.76.76,0,1,1,.76.76A.76.76,0,0,1,2.52,16.79Z"/><path d="M17.5,5.58a11.2,11.2,0,0,0-2.77,22.06l-1.54,6.93a.36.36,0,0,0,.27.43h.08a.36.36,0,0,0,.35-.28l1.54-6.92a10.88,10.88,0,0,0,4.18,0l1.55,6.93a.36.36,0,0,0,.7-.16L20.3,27.63A11.2,11.2,0,0,0,17.5,5.58Zm0,21.71a10.49,10.49,0,0,1-1.92-.18l.15-.67a9.43,9.43,0,0,0,3.57,0l.15.67A10.49,10.49,0,0,1,17.5,27.28Zm-.76-10.5a.76.76,0,1,1,1.52,0,.75.75,0,0,1-.27.56l-.14-.64a.36.36,0,0,0-.35-.28h0a.36.36,0,0,0-.35.28l-.14.64A.75.75,0,0,1,16.74,16.79Zm2.23,0a1.47,1.47,0,1,0-2.13,1.31l-1.66,7.48a9.1,9.1,0,1,1,4.65,0L18.16,18.1A1.47,1.47,0,0,0,19,16.79ZM17.5,18.43l1.64,7.31a8.69,8.69,0,0,1-3.26,0Zm2.64,8.51L20,26.27a9.82,9.82,0,1,0-5,0l-.15.66a10.5,10.5,0,1,1,5.26,0Z"/><path d="M4.4,9.86a1.47,1.47,0,1,0,1.47,1.47A1.47,1.47,0,0,0,4.4,9.86Zm0,2.23a.76.76,0,1,1,.76-.76A.76.76,0,0,1,4.4,12.09Z"/><path d="M7.43,8.19A1.47,1.47,0,1,0,6,6.72,1.47,1.47,0,0,0,7.43,8.19ZM7.43,6a.76.76,0,1,1-.76.76A.76.76,0,0,1,7.43,6Z"/><path d="M12.09,5.12a1.47,1.47,0,1,0-1.47-1.47A1.47,1.47,0,0,0,12.09,5.12Zm0-2.23a.76.76,0,1,1-.76.76A.76.76,0,0,1,12.09,2.89Z"/><rect class="cls-1" width="35" height="35"/></g></g></svg>