<svg xmlns="http://www.w3.org/2000/svg" viewBox="0 0 35.02 35"><defs><style>.cls-1{fill:none;}</style></defs><title>kew_gardens</title><g id="Layer_2" data-name="Layer 2"><g id="design"><path d="M35,15.07v-.68H30.13v-4.2h0c-.15-3-2.33-5.29-6.32-6.59a24.14,24.14,0,0,0-6.2-1.07v0a24.14,24.14,0,0,0-6.2,1.07c-4,1.3-6.17,3.57-6.32,6.59H5v4.27H0v.68H5v3.44H0v.68H35v-.68H30.13V15.07ZM17.59,3.2c.23,0,11.47.37,11.85,7H5.74C6.12,3.58,17.35,3.21,17.59,3.2ZM5.72,18.58V10.87H29.45v7.71Z"/><path d="M17.59,21.71A4.58,4.58,0,0,0,13,26.2h0v.07h0V35h.68V26.88h7.79V35h.68V26.2h0A4.58,4.58,0,0,0,17.59,21.71Zm0,.68a3.9,3.9,0,0,1,3.89,3.81H13.7A3.9,3.9,0,0,1,17.59,22.39Z"/><rect class="cls-1" x="0.01" width="35" height="35"/></g></g></svg>