<svg xmlns="http://www.w3.org/2000/svg" viewBox="0 0 35 35"><defs><style>.cls-1{fill:none;}</style></defs><title>tate_modern</title><g id="Layer_2" data-name="Layer 2"><g id="design"><rect x="11.6" y="29.57" width="0.69" height="5.42"/><rect x="8.54" y="29.57" width="0.69" height="5.42"/><rect x="14.62" y="29.57" width="0.69" height="5.42"/><polygon points="35 21.41 35 20.72 24.48 20.72 24.11 2.72 24.1 2.38 19.89 2.38 19.49 20.72 0 20.72 0 21.41 19.48 21.41 19.39 25.12 0 25.12 0 25.81 19.38 25.81 19.18 34.98 19.87 35 20.56 3.07 23.43 3.07 24.09 35 24.78 34.99 24.59 25.81 35 25.81 35 25.12 24.58 25.12 24.5 21.41 35 21.41"/><rect class="cls-1" width="35" height="35"/></g></g></svg>