<svg xmlns="http://www.w3.org/2000/svg" viewBox="0 0 35.3 35"><defs><style>.cls-1{fill:none;}</style></defs><title>tower_bridge</title><g id="Layer_2" data-name="Layer 2"><g id="design"><rect x="5.52" y="10.81" width="0.71" height="8.23"/><rect x="7.6" y="10.81" width="0.71" height="8.23"/><polygon points="6.91 7.13 7.69 9.11 8.35 8.85 6.91 5.19 5.47 8.85 6.13 9.11 6.91 7.13"/><path d="M35.3,21.74V21h-4V9.28H25.52v2.2H9.78V9.28H4V21H0v.71H4v3.76a2.13,2.13,0,0,0-.94.43,1.32,1.32,0,0,1-.9.33,1.32,1.32,0,0,1-.89-.33A2,2,0,0,0,0,25.46v.71a1.32,1.32,0,0,1,.89.33A2,2,0,0,0,2.2,27a2,2,0,0,0,1.31-.47A1.61,1.61,0,0,1,4,26.22V35h.71V26.21a1.54,1.54,0,0,1,.56.29,2.07,2.07,0,0,0,2.62,0,1.32,1.32,0,0,1,.9-.33l.26,0V35h.71V26.55A1.94,1.94,0,0,0,11,27a2,2,0,0,0,1.31-.47,1.37,1.37,0,0,1,1.79,0,2.07,2.07,0,0,0,2.62,0,1.37,1.37,0,0,1,1.79,0,2.07,2.07,0,0,0,2.62,0,1.37,1.37,0,0,1,1.79,0,2,2,0,0,0,1.31.47,2,2,0,0,0,1.26-.43V35h.71V26.19l.24,0a1.32,1.32,0,0,1,.9.33,2.07,2.07,0,0,0,2.62,0,1.52,1.52,0,0,1,.58-.3V35h.71V26.22a1.64,1.64,0,0,1,.51.28,2.08,2.08,0,0,0,2.62,0,1.33,1.33,0,0,1,.9-.33v-.71a2,2,0,0,0-1.31.47,1.38,1.38,0,0,1-1.8,0,2.13,2.13,0,0,0-.93-.43V21.74ZM17.65,12.18h7.87v1.21H9.78V12.18ZM8.82,25.46a2,2,0,0,0-1.31.47,1.37,1.37,0,0,1-1.79,0,2.11,2.11,0,0,0-1-.43V10H9.08v15.5Zm16.34.47a1.37,1.37,0,0,1-1.79,0,2.07,2.07,0,0,0-2.62,0,1.37,1.37,0,0,1-1.79,0,2.07,2.07,0,0,0-2.62,0,1.37,1.37,0,0,1-1.79,0,2.07,2.07,0,0,0-2.62,0,1.37,1.37,0,0,1-1.79,0,3.59,3.59,0,0,0-.34-.22V21.59l6.41-3.77-.36-.61L9.78,20.77V14.1H25.52v6.67l-6.06-3.56-.36.61,6.41,3.77v4.11A3.44,3.44,0,0,0,25.16,25.93Zm4.41,0a1.37,1.37,0,0,1-1.79,0,2,2,0,0,0-1.31-.47l-.24,0V10h4.33V25.49A2.11,2.11,0,0,0,29.57,25.93Z"/><rect x="29.08" y="10.81" width="0.71" height="8.23"/><rect x="27" y="10.81" width="0.71" height="8.23"/><polygon points="28.39 7.13 29.17 9.11 29.83 8.85 28.39 5.19 26.96 8.85 27.61 9.11 28.39 7.13"/><path d="M17.65,8a3.22,3.22,0,1,0-3.22-3.22A3.22,3.22,0,0,0,17.65,8Zm0-5.73a2.51,2.51,0,1,1-2.51,2.51A2.52,2.52,0,0,1,17.65,2.3Z"/><rect class="cls-1" x="0.15" width="35" height="35"/></g></g></svg>